<svg xmlns="http://www.w3.org/2000/svg" xmlns:xlink="http://www.w3.org/1999/xlink" contentStyleType="text/css" data-diagram-type="ACTIVITY" height="1729.1667px" preserveAspectRatio="none" style="width:435px;height:1729px;background:#0D1117;" version="1.1" viewBox="0 0 435 1729" width="435.4167px" zoomAndPan="magnify"><title>AstrID Data Flow Pipeline</title><defs><linearGradient id="g14mx10wxkfrxc0" x1="50%" x2="50%" y1="0%" y2="100%"><stop offset="0%" stop-color="#35638F"/><stop offset="100%" stop-color="#033C73"/></linearGradient><linearGradient id="g14mx10wxkfrxc1" x1="50%" x2="50%" y1="0%" y2="100%"><stop offset="0%" stop-color="#59B6EC"/><stop offset="100%" stop-color="#2FA4E7"/></linearGradient></defs><g><rect fill="#0D1117" height="1729.1667" style="stroke:none;stroke-width:1.0417;" width="435.4167" x="0" y="0"/><g class="title" data-source-line="6"><rect fill="none" height="47.168" rx="4.1667" ry="4.1667" style="stroke:#BABDBF;stroke-width:1.0417;" width="323.4741" x="54.7424" y="20.8333"/><text fill="#2FA4E7" font-family="Arial" font-size="20.8333" font-weight="bold" lengthAdjust="spacing" textLength="300.5575" x="66.2008" y="51.6296">AstrID Data Flow Pipeline</text></g><ellipse cx="107.8379" cy="89.8763" fill="#033C73" rx="10.4167" ry="10.4167" style="stroke:#2683B9;stroke-width:1.0417;"/><path d="M205.0283,122.168 L205.0283,135.6934 L184.1949,139.86 L205.0283,144.0267 L205.0283,157.5521 A0,0 0 0 0 205.0283,157.5521 L364.0656,157.5521 A0,0 0 0 0 364.0656,157.5521 L364.0656,132.5846 L353.6489,122.168 L205.0283,122.168 A0,0 0 0 0 205.0283,122.168" fill="url(#g14mx10wxkfrxc0)" style="stroke:#033C73;stroke-width:1.0417;"/><path d="M353.6489,122.168 L353.6489,132.5846 L364.0656,132.5846 L353.6489,122.168" fill="url(#g14mx10wxkfrxc0)" style="stroke:#033C73;stroke-width:1.0417;"/><text fill="#FFFFFF" font-family="Arial" font-size="12.5" lengthAdjust="spacing" textLength="126.7456" x="216.4866" y="144.1874">MAST, SkyView, etc.</text><rect fill="url(#g14mx10wxkfrxc1)" height="37.4674" rx="4.1667" ry="4.1667" style="stroke:#2FA4E7;stroke-width:1.0417;" width="152.714" x="31.4809" y="121.1263"/><text fill="#FFFFFF" font-family="Arial" font-size="12.5" lengthAdjust="spacing" textLength="129.7974" x="42.9392" y="144.1874">External Survey APIs</text><path d="M209.02,180.4688 L209.02,193.9941 L188.1866,198.1608 L209.02,202.3275 L209.02,215.8529 A0,0 0 0 0 209.02,215.8529 L419.0521,215.8529 A0,0 0 0 0 419.0521,215.8529 L419.0521,190.8854 L408.6355,180.4688 L209.02,180.4688 A0,0 0 0 0 209.02,180.4688" fill="url(#g14mx10wxkfrxc0)" style="stroke:#033C73;stroke-width:1.0417;"/><path d="M408.6355,180.4688 L408.6355,190.8854 L419.0521,190.8854 L408.6355,180.4688" fill="url(#g14mx10wxkfrxc0)" style="stroke:#033C73;stroke-width:1.0417;"/><text fill="#FFFFFF" font-family="Arial" font-size="12.5" lengthAdjust="spacing" textLength="177.7405" x="220.4783" y="202.4882">ASTR-74: Survey Integration</text><rect fill="url(#g14mx10wxkfrxc1)" height="37.4674" rx="4.1667" ry="4.1667" style="stroke:#2FA4E7;stroke-width:1.0417;" width="160.6974" x="27.4892" y="179.4271"/><text fill="#FFFFFF" font-family="Arial" font-size="12.5" lengthAdjust="spacing" textLength="137.7808" x="38.9476" y="202.4882">Observation Ingestion</text><path d="M187.267,238.7695 L187.267,252.2949 L166.4337,256.4616 L187.267,260.6283 L187.267,274.1536 A0,0 0 0 0 187.267,274.1536 L357.1198,274.1536 A0,0 0 0 0 357.1198,274.1536 L357.1198,249.1862 L346.7031,238.7695 L187.267,238.7695 A0,0 0 0 0 187.267,238.7695" fill="url(#g14mx10wxkfrxc0)" style="stroke:#033C73;stroke-width:1.0417;"/><path d="M346.7031,238.7695 L346.7031,249.1862 L357.1198,249.1862 L346.7031,238.7695" fill="url(#g14mx10wxkfrxc0)" style="stroke:#033C73;stroke-width:1.0417;"/><text fill="#FFFFFF" font-family="Arial" font-size="12.5" lengthAdjust="spacing" textLength="137.561" x="198.7254" y="260.789">Cloudflare R2 Storage</text><rect fill="url(#g14mx10wxkfrxc1)" height="37.4674" rx="4.1667" ry="4.1667" style="stroke:#2FA4E7;stroke-width:1.0417;" width="117.1916" x="49.2421" y="237.7279"/><text fill="#FFFFFF" font-family="Arial" font-size="12.5" lengthAdjust="spacing" textLength="94.2749" x="60.7005" y="260.789">Store Raw FITS</text><path d="M225.0509,297.0703 L225.0509,310.5957 L204.2175,314.7624 L225.0509,318.929 L225.0509,332.4544 A0,0 0 0 0 225.0509,332.4544 L393.0603,332.4544 A0,0 0 0 0 393.0603,332.4544 L393.0603,307.487 L382.6436,297.0703 L225.0509,297.0703 A0,0 0 0 0 225.0509,297.0703" fill="url(#g14mx10wxkfrxc0)" style="stroke:#033C73;stroke-width:1.0417;"/><path d="M382.6436,297.0703 L382.6436,307.487 L393.0603,307.487 L382.6436,297.0703" fill="url(#g14mx10wxkfrxc0)" style="stroke:#033C73;stroke-width:1.0417;"/><text fill="#FFFFFF" font-family="Arial" font-size="12.5" lengthAdjust="spacing" textLength="135.7178" x="236.5092" y="319.0898">PostgreSQL Database</text><rect fill="url(#g14mx10wxkfrxc1)" height="37.4674" rx="4.1667" ry="4.1667" style="stroke:#2FA4E7;stroke-width:1.0417;" width="192.7592" x="11.4583" y="296.0286"/><text fill="#FFFFFF" font-family="Arial" font-size="12.5" lengthAdjust="spacing" textLength="169.8425" x="22.9167" y="319.0898">Create Observation Record</text><path d="M208.5927,355.3711 L208.5927,368.8965 L187.7594,373.0632 L208.5927,377.2298 L208.5927,390.7552 A0,0 0 0 0 208.5927,390.7552 L348.642,390.7552 A0,0 0 0 0 348.642,390.7552 L348.642,365.7878 L338.2253,355.3711 L208.5927,355.3711 A0,0 0 0 0 208.5927,355.3711" fill="url(#g14mx10wxkfrxc0)" style="stroke:#033C73;stroke-width:1.0417;"/><path d="M338.2253,355.3711 L338.2253,365.7878 L348.642,365.7878 L338.2253,355.3711" fill="url(#g14mx10wxkfrxc0)" style="stroke:#033C73;stroke-width:1.0417;"/><text fill="#FFFFFF" font-family="Arial" font-size="12.5" lengthAdjust="spacing" textLength="107.7576" x="220.0511" y="377.3905">Dramatiq Worker</text><rect fill="url(#g14mx10wxkfrxc1)" height="37.4674" rx="4.1667" ry="4.1667" style="stroke:#2FA4E7;stroke-width:1.0417;" width="159.8429" x="27.9165" y="354.3294"/><text fill="#FFFFFF" font-family="Arial" font-size="12.5" lengthAdjust="spacing" textLength="136.9263" x="39.3748" y="377.3905">Trigger Preprocessing</text><path d="M193.7673,413.6719 L193.7673,427.1973 L172.934,431.3639 L193.7673,435.5306 L193.7673,449.056 A0,0 0 0 0 193.7673,449.056 L380.8685,449.056 A0,0 0 0 0 380.8685,449.056 L380.8685,424.0885 L370.4519,413.6719 L193.7673,413.6719 A0,0 0 0 0 193.7673,413.6719" fill="url(#g14mx10wxkfrxc0)" style="stroke:#033C73;stroke-width:1.0417;"/><path d="M370.4519,413.6719 L370.4519,424.0885 L380.8685,424.0885 L370.4519,413.6719" fill="url(#g14mx10wxkfrxc0)" style="stroke:#033C73;stroke-width:1.0417;"/><text fill="#FFFFFF" font-family="Arial" font-size="12.5" lengthAdjust="spacing" textLength="154.8096" x="205.2256" y="435.6913">Bias/Dark/Flat correction</text><rect fill="url(#g14mx10wxkfrxc1)" height="37.4674" rx="4.1667" ry="4.1667" style="stroke:#2FA4E7;stroke-width:1.0417;" width="130.1921" x="42.7419" y="412.6302"/><text fill="#FFFFFF" font-family="Arial" font-size="12.5" lengthAdjust="spacing" textLength="107.2754" x="54.2002" y="435.6913">Apply Calibration</text><path d="M188.6495,471.9727 L188.6495,485.498 L167.8162,489.6647 L188.6495,493.8314 L188.6495,507.3568 A0,0 0 0 0 188.6495,507.3568 L380.7983,507.3568 A0,0 0 0 0 380.7983,507.3568 L380.7983,482.3893 L370.3817,471.9727 L188.6495,471.9727 A0,0 0 0 0 188.6495,471.9727" fill="url(#g14mx10wxkfrxc0)" style="stroke:#033C73;stroke-width:1.0417;"/><path d="M370.3817,471.9727 L370.3817,482.3893 L380.7983,482.3893 L370.3817,471.9727" fill="url(#g14mx10wxkfrxc0)" style="stroke:#033C73;stroke-width:1.0417;"/><text fill="#FFFFFF" font-family="Arial" font-size="12.5" lengthAdjust="spacing" textLength="159.8572" x="200.1078" y="493.9921">World Coordinate System</text><rect fill="url(#g14mx10wxkfrxc1)" height="37.4674" rx="4.1667" ry="4.1667" style="stroke:#2FA4E7;stroke-width:1.0417;" width="119.9565" x="47.8597" y="470.931"/><text fill="#FFFFFF" font-family="Arial" font-size="12.5" lengthAdjust="spacing" textLength="97.0398" x="59.318" y="493.9921">WCS Alignment</text><path d="M199.6602,530.2734 L199.6602,543.7988 L178.8269,547.9655 L199.6602,552.1322 L199.6602,565.6576 A0,0 0 0 0 199.6602,565.6576 L372.0825,565.6576 A0,0 0 0 0 372.0825,565.6576 L372.0825,540.6901 L361.6659,530.2734 L199.6602,530.2734 A0,0 0 0 0 199.6602,530.2734" fill="url(#g14mx10wxkfrxc0)" style="stroke:#033C73;stroke-width:1.0417;"/><path d="M361.6659,530.2734 L361.6659,540.6901 L372.0825,540.6901 L361.6659,530.2734" fill="url(#g14mx10wxkfrxc0)" style="stroke:#033C73;stroke-width:1.0417;"/><text fill="#FFFFFF" font-family="Arial" font-size="12.5" lengthAdjust="spacing" textLength="140.1306" x="211.1186" y="552.2929">Astrometric alignment</text><rect fill="url(#g14mx10wxkfrxc1)" height="37.4674" rx="4.1667" ry="4.1667" style="stroke:#2FA4E7;stroke-width:1.0417;" width="141.9779" x="36.849" y="529.2318"/><text fill="#FFFFFF" font-family="Arial" font-size="12.5" lengthAdjust="spacing" textLength="119.0613" x="48.3073" y="552.2929">Image Registration</text><path d="M212.1023,588.5742 L212.1023,602.0996 L191.2689,606.2663 L212.1023,610.4329 L212.1023,623.9583 A0,0 0 0 0 212.1023,623.9583 L313.913,623.9583 A0,0 0 0 0 313.913,623.9583 L313.913,598.9909 L303.4963,588.5742 L212.1023,588.5742 A0,0 0 0 0 212.1023,588.5742" fill="url(#g14mx10wxkfrxc0)" style="stroke:#033C73;stroke-width:1.0417;"/><path d="M303.4963,588.5742 L303.4963,598.9909 L313.913,598.9909 L303.4963,588.5742" fill="url(#g14mx10wxkfrxc0)" style="stroke:#033C73;stroke-width:1.0417;"/><text fill="#FFFFFF" font-family="Arial" font-size="12.5" lengthAdjust="spacing" textLength="69.519" x="223.5606" y="610.5937">R2 Storage</text><rect fill="url(#g14mx10wxkfrxc1)" height="37.4674" rx="4.1667" ry="4.1667" style="stroke:#2FA4E7;stroke-width:1.0417;" width="166.862" x="24.4069" y="587.5326"/><text fill="#FFFFFF" font-family="Arial" font-size="12.5" lengthAdjust="spacing" textLength="143.9453" x="35.8653" y="610.5937">Store Processed Image</text><path d="M202.8615,646.875 L202.8615,660.4004 L182.0282,664.5671 L202.8615,668.7337 L202.8615,682.2591 A0,0 0 0 0 202.8615,682.2591 L342.9108,682.2591 A0,0 0 0 0 342.9108,682.2591 L342.9108,657.2917 L332.4941,646.875 L202.8615,646.875 A0,0 0 0 0 202.8615,646.875" fill="url(#g14mx10wxkfrxc0)" style="stroke:#033C73;stroke-width:1.0417;"/><path d="M332.4941,646.875 L332.4941,657.2917 L342.9108,657.2917 L332.4941,646.875" fill="url(#g14mx10wxkfrxc0)" style="stroke:#033C73;stroke-width:1.0417;"/><text fill="#FFFFFF" font-family="Arial" font-size="12.5" lengthAdjust="spacing" textLength="107.7576" x="214.3199" y="668.8944">Dramatiq Worker</text><rect fill="url(#g14mx10wxkfrxc1)" height="37.4674" rx="4.1667" ry="4.1667" style="stroke:#2FA4E7;stroke-width:1.0417;" width="148.3805" x="33.6477" y="645.8333"/><text fill="#FFFFFF" font-family="Arial" font-size="12.5" lengthAdjust="spacing" textLength="125.4639" x="45.106" y="668.8944">Trigger Differencing</text><path d="M214.8488,705.1758 L214.8488,718.7012 L194.0155,722.8678 L214.8488,727.0345 L214.8488,740.5599 A0,0 0 0 0 214.8488,740.5599 L383.8531,740.5599 A0,0 0 0 0 383.8531,740.5599 L383.8531,715.5924 L373.4365,705.1758 L214.8488,705.1758 A0,0 0 0 0 214.8488,705.1758" fill="url(#g14mx10wxkfrxc0)" style="stroke:#033C73;stroke-width:1.0417;"/><path d="M373.4365,705.1758 L373.4365,715.5924 L383.8531,715.5924 L373.4365,705.1758" fill="url(#g14mx10wxkfrxc0)" style="stroke:#033C73;stroke-width:1.0417;"/><text fill="#FFFFFF" font-family="Arial" font-size="12.5" lengthAdjust="spacing" textLength="136.7126" x="226.3072" y="727.1952">Historical survey data</text><rect fill="url(#g14mx10wxkfrxc1)" height="37.4674" rx="4.1667" ry="4.1667" style="stroke:#2FA4E7;stroke-width:1.0417;" width="172.3551" x="21.6604" y="704.1341"/><text fill="#FFFFFF" font-family="Arial" font-size="12.5" lengthAdjust="spacing" textLength="149.4385" x="33.1187" y="727.1952">Select Reference Image</text><path d="M210.2193,763.4766 L210.2193,777.002 L189.386,781.1686 L210.2193,785.3353 L210.2193,798.8607 A0,0 0 0 0 210.2193,798.8607 L423.584,798.8607 A0,0 0 0 0 423.584,798.8607 L423.584,773.8932 L413.1673,763.4766 L210.2193,763.4766 A0,0 0 0 0 210.2193,763.4766" fill="url(#g14mx10wxkfrxc0)" style="stroke:#033C73;stroke-width:1.0417;"/><path d="M413.1673,763.4766 L413.1673,773.8932 L423.584,773.8932 L413.1673,763.4766" fill="url(#g14mx10wxkfrxc0)" style="stroke:#033C73;stroke-width:1.0417;"/><text fill="#FFFFFF" font-family="Arial" font-size="12.5" lengthAdjust="spacing" textLength="181.073" x="221.6777" y="785.496">ASTR-78: Image Differencing</text><rect fill="url(#g14mx10wxkfrxc1)" height="37.4674" rx="4.1667" ry="4.1667" style="stroke:#2FA4E7;stroke-width:1.0417;" width="163.0961" x="26.2899" y="762.4349"/><text fill="#FFFFFF" font-family="Arial" font-size="12.5" lengthAdjust="spacing" textLength="140.1794" x="37.7482" y="785.496">Apply ZOGY Algorithm</text><path d="M189.3606,821.7773 L189.3606,835.3027 L168.5272,839.4694 L189.3606,843.6361 L189.3606,857.1615 A0,0 0 0 0 189.3606,857.1615 L303.9215,857.1615 A0,0 0 0 0 303.9215,857.1615 L303.9215,832.194 L293.5048,821.7773 L189.3606,821.7773 A0,0 0 0 0 189.3606,821.7773" fill="url(#g14mx10wxkfrxc0)" style="stroke:#033C73;stroke-width:1.0417;"/><path d="M293.5048,821.7773 L293.5048,832.194 L303.9215,832.194 L293.5048,821.7773" fill="url(#g14mx10wxkfrxc0)" style="stroke:#033C73;stroke-width:1.0417;"/><text fill="#FFFFFF" font-family="Arial" font-size="12.5" lengthAdjust="spacing" textLength="82.2693" x="200.8189" y="843.7968">SEP/photutils</text><rect fill="url(#g14mx10wxkfrxc1)" height="37.4674" rx="4.1667" ry="4.1667" style="stroke:#2FA4E7;stroke-width:1.0417;" width="121.3786" x="47.1486" y="820.7357"/><text fill="#FFFFFF" font-family="Arial" font-size="12.5" lengthAdjust="spacing" textLength="98.4619" x="58.607" y="843.7968">Extract Sources</text><path d="M193.2576,880.0781 L193.2576,893.6035 L172.4243,897.7702 L193.2576,901.9368 L193.2576,915.4622 A0,0 0 0 0 193.2576,915.4622 L339.8438,915.4622 A0,0 0 0 0 339.8438,915.4622 L339.8438,890.4948 L329.4271,880.0781 L193.2576,880.0781 A0,0 0 0 0 193.2576,880.0781" fill="url(#g14mx10wxkfrxc0)" style="stroke:#033C73;stroke-width:1.0417;"/><path d="M329.4271,880.0781 L329.4271,890.4948 L339.8438,890.4948 L329.4271,880.0781" fill="url(#g14mx10wxkfrxc0)" style="stroke:#033C73;stroke-width:1.0417;"/><text fill="#FFFFFF" font-family="Arial" font-size="12.5" lengthAdjust="spacing" textLength="114.2944" x="204.716" y="902.0976">Quality thresholds</text><rect fill="url(#g14mx10wxkfrxc1)" height="37.4674" rx="4.1667" ry="4.1667" style="stroke:#2FA4E7;stroke-width:1.0417;" width="129.1728" x="43.2515" y="879.0365"/><text fill="#FFFFFF" font-family="Arial" font-size="12.5" lengthAdjust="spacing" textLength="106.2561" x="54.7099" y="902.0976">Filter Candidates</text><path d="M212.7858,938.3789 L212.7858,951.9043 L191.9525,956.071 L212.7858,960.2376 L212.7858,973.763 A0,0 0 0 0 212.7858,973.763 L314.5966,973.763 A0,0 0 0 0 314.5966,973.763 L314.5966,948.7956 L304.1799,938.3789 L212.7858,938.3789 A0,0 0 0 0 212.7858,938.3789" fill="url(#g14mx10wxkfrxc0)" style="stroke:#033C73;stroke-width:1.0417;"/><path d="M304.1799,938.3789 L304.1799,948.7956 L314.5966,948.7956 L304.1799,938.3789" fill="url(#g14mx10wxkfrxc0)" style="stroke:#033C73;stroke-width:1.0417;"/><text fill="#FFFFFF" font-family="Arial" font-size="12.5" lengthAdjust="spacing" textLength="69.519" x="224.2442" y="960.3984">R2 Storage</text><rect fill="url(#g14mx10wxkfrxc1)" height="37.4674" rx="4.1667" ry="4.1667" style="stroke:#2FA4E7;stroke-width:1.0417;" width="168.2292" x="23.7233" y="937.3372"/><text fill="#FFFFFF" font-family="Arial" font-size="12.5" lengthAdjust="spacing" textLength="145.3125" x="35.1817" y="960.3984">Store Difference Image</text><path d="M205.8126,996.6797 L205.8126,1010.2051 L184.9792,1014.3717 L205.8126,1018.5384 L205.8126,1032.0638 A0,0 0 0 0 205.8126,1032.0638 L345.8618,1032.0638 A0,0 0 0 0 345.8618,1032.0638 L345.8618,1007.0964 L335.4451,996.6797 L205.8126,996.6797 A0,0 0 0 0 205.8126,996.6797" fill="url(#g14mx10wxkfrxc0)" style="stroke:#033C73;stroke-width:1.0417;"/><path d="M335.4451,996.6797 L335.4451,1007.0964 L345.8618,1007.0964 L335.4451,996.6797" fill="url(#g14mx10wxkfrxc0)" style="stroke:#033C73;stroke-width:1.0417;"/><text fill="#FFFFFF" font-family="Arial" font-size="12.5" lengthAdjust="spacing" textLength="107.7576" x="217.2709" y="1018.6991">Dramatiq Worker</text><rect fill="url(#g14mx10wxkfrxc1)" height="37.4674" rx="4.1667" ry="4.1667" style="stroke:#2FA4E7;stroke-width:1.0417;" width="154.2826" x="30.6966" y="995.638"/><text fill="#FFFFFF" font-family="Arial" font-size="12.5" lengthAdjust="spacing" textLength="131.366" x="42.1549" y="1018.6991">Trigger ML Detection</text><path d="M195.7723,1054.9805 L195.7723,1068.5059 L174.939,1072.6725 L195.7723,1076.8392 L195.7723,1090.3646 A0,0 0 0 0 195.7723,1090.3646 L397.9248,1090.3646 A0,0 0 0 0 397.9248,1090.3646 L397.9248,1065.3971 L387.5081,1054.9805 L195.7723,1054.9805 A0,0 0 0 0 195.7723,1054.9805" fill="url(#g14mx10wxkfrxc0)" style="stroke:#033C73;stroke-width:1.0417;"/><path d="M387.5081,1054.9805 L387.5081,1065.3971 L397.9248,1065.3971 L387.5081,1054.9805" fill="url(#g14mx10wxkfrxc0)" style="stroke:#033C73;stroke-width:1.0417;"/><text fill="#FFFFFF" font-family="Arial" font-size="12.5" lengthAdjust="spacing" textLength="169.8608" x="207.2306" y="1076.9999">ASTR-80: U-Net Integration</text><rect fill="url(#g14mx10wxkfrxc1)" height="37.4674" rx="4.1667" ry="4.1667" style="stroke:#2FA4E7;stroke-width:1.0417;" width="134.2021" x="40.7369" y="1053.9388"/><text fill="#FFFFFF" font-family="Arial" font-size="12.5" lengthAdjust="spacing" textLength="111.2854" x="52.1952" y="1076.9999">Load U-Net Model</text><path d="M183.8888,1113.2813 L183.8888,1126.8066 L163.0554,1130.9733 L183.8888,1135.14 L183.8888,1148.6654 A0,0 0 0 0 183.8888,1148.6654 L334.0149,1148.6654 A0,0 0 0 0 334.0149,1148.6654 L334.0149,1123.6979 L323.5982,1113.2813 L183.8888,1113.2813 A0,0 0 0 0 183.8888,1113.2813" fill="url(#g14mx10wxkfrxc0)" style="stroke:#033C73;stroke-width:1.0417;"/><path d="M323.5982,1113.2813 L323.5982,1123.6979 L334.0149,1123.6979 L323.5982,1113.2813" fill="url(#g14mx10wxkfrxc0)" style="stroke:#033C73;stroke-width:1.0417;"/><text fill="#FFFFFF" font-family="Arial" font-size="12.5" lengthAdjust="spacing" textLength="117.8345" x="195.3471" y="1135.3007">Anomaly detection</text><rect fill="url(#g14mx10wxkfrxc1)" height="37.4674" rx="4.1667" ry="4.1667" style="stroke:#2FA4E7;stroke-width:1.0417;" width="110.435" x="52.6204" y="1112.2396"/><text fill="#FFFFFF" font-family="Arial" font-size="12.5" lengthAdjust="spacing" textLength="87.5183" x="64.0788" y="1135.3007">Run Inference</text><path d="M193.3767,1171.582 L193.3767,1185.1074 L172.5433,1189.2741 L193.3767,1193.4408 L193.3767,1206.9661 A0,0 0 0 0 193.3767,1206.9661 L345.4254,1206.9661 A0,0 0 0 0 345.4254,1206.9661 L345.4254,1181.9987 L335.0087,1171.582 L193.3767,1171.582 A0,0 0 0 0 193.3767,1171.582" fill="url(#g14mx10wxkfrxc0)" style="stroke:#033C73;stroke-width:1.0417;"/><path d="M335.0087,1171.582 L335.0087,1181.9987 L345.4254,1181.9987 L335.0087,1171.582" fill="url(#g14mx10wxkfrxc0)" style="stroke:#033C73;stroke-width:1.0417;"/><text fill="#FFFFFF" font-family="Arial" font-size="12.5" lengthAdjust="spacing" textLength="119.7571" x="204.835" y="1193.6015">Confidence scoring</text><rect fill="url(#g14mx10wxkfrxc1)" height="37.4674" rx="4.1667" ry="4.1667" style="stroke:#2FA4E7;stroke-width:1.0417;" width="129.4108" x="43.1325" y="1170.5404"/><text fill="#FFFFFF" font-family="Arial" font-size="12.5" lengthAdjust="spacing" textLength="106.4941" x="54.5909" y="1193.6015">Score Detections</text><path d="M213.9699,1229.8828 L213.9699,1243.4082 L193.1366,1247.5749 L213.9699,1251.7415 L213.9699,1265.2669 A0,0 0 0 0 213.9699,1265.2669 L340.9637,1265.2669 A0,0 0 0 0 340.9637,1265.2669 L340.9637,1240.2995 L330.5471,1229.8828 L213.9699,1229.8828 A0,0 0 0 0 213.9699,1229.8828" fill="url(#g14mx10wxkfrxc0)" style="stroke:#033C73;stroke-width:1.0417;"/><path d="M330.5471,1229.8828 L330.5471,1240.2995 L340.9637,1240.2995 L330.5471,1229.8828" fill="url(#g14mx10wxkfrxc0)" style="stroke:#033C73;stroke-width:1.0417;"/><text fill="#FFFFFF" font-family="Arial" font-size="12.5" lengthAdjust="spacing" textLength="94.7021" x="225.4283" y="1251.9023">Database + R2</text><rect fill="url(#g14mx10wxkfrxc1)" height="37.4674" rx="4.1667" ry="4.1667" style="stroke:#2FA4E7;stroke-width:1.0417;" width="170.5973" x="22.5393" y="1228.8411"/><text fill="#FFFFFF" font-family="Arial" font-size="12.5" lengthAdjust="spacing" textLength="147.6807" x="33.9976" y="1251.9023">Store Detection Results</text><path d="M195.9371,1288.1836 L195.9371,1301.709 L175.1038,1305.8757 L195.9371,1310.0423 L195.9371,1323.5677 A0,0 0 0 0 195.9371,1323.5677 L362.03,1323.5677 A0,0 0 0 0 362.03,1323.5677 L362.03,1298.6003 L351.6134,1288.1836 L195.9371,1288.1836 A0,0 0 0 0 195.9371,1288.1836" fill="url(#g14mx10wxkfrxc0)" style="stroke:#033C73;stroke-width:1.0417;"/><path d="M351.6134,1288.1836 L351.6134,1298.6003 L362.03,1298.6003 L351.6134,1288.1836" fill="url(#g14mx10wxkfrxc0)" style="stroke:#033C73;stroke-width:1.0417;"/><text fill="#FFFFFF" font-family="Arial" font-size="12.5" lengthAdjust="spacing" textLength="133.8013" x="207.3954" y="1310.203">Human review queue</text><rect fill="url(#g14mx10wxkfrxc1)" height="37.4674" rx="4.1667" ry="4.1667" style="stroke:#2FA4E7;stroke-width:1.0417;" width="134.5317" x="40.5721" y="1287.1419"/><text fill="#FFFFFF" font-family="Arial" font-size="12.5" lengthAdjust="spacing" textLength="111.615" x="52.0304" y="1310.203">Trigger Validation</text><path d="M187.2365,1346.4844 L187.2365,1360.0098 L166.4032,1364.1764 L187.2365,1368.3431 L187.2365,1381.8685 A0,0 0 0 0 187.2365,1381.8685 L392.6849,1381.8685 A0,0 0 0 0 392.6849,1381.8685 L392.6849,1356.901 L382.2683,1346.4844 L187.2365,1346.4844 A0,0 0 0 0 187.2365,1346.4844" fill="url(#g14mx10wxkfrxc0)" style="stroke:#033C73;stroke-width:1.0417;"/><path d="M382.2683,1346.4844 L382.2683,1356.901 L392.6849,1356.901 L382.2683,1346.4844" fill="url(#g14mx10wxkfrxc0)" style="stroke:#033C73;stroke-width:1.0417;"/><text fill="#FFFFFF" font-family="Arial" font-size="12.5" lengthAdjust="spacing" textLength="173.1567" x="198.6949" y="1368.5038">ASTR-82: Human Validation</text><rect fill="url(#g14mx10wxkfrxc1)" height="37.4674" rx="4.1667" ry="4.1667" style="stroke:#2FA4E7;stroke-width:1.0417;" width="117.1305" x="49.2727" y="1345.4427"/><text fill="#FFFFFF" font-family="Arial" font-size="12.5" lengthAdjust="spacing" textLength="94.2139" x="60.731" y="1368.5038">Human Review</text><path d="M182.6864,1404.7852 L182.6864,1418.3105 L161.853,1422.4772 L182.6864,1426.6439 L182.6864,1440.1693 A0,0 0 0 0 182.6864,1440.1693 L326.6968,1440.1693 A0,0 0 0 0 326.6968,1440.1693 L326.6968,1415.2018 L316.2801,1404.7852 L182.6864,1404.7852 A0,0 0 0 0 182.6864,1404.7852" fill="url(#g14mx10wxkfrxc0)" style="stroke:#033C73;stroke-width:1.0417;"/><path d="M316.2801,1404.7852 L316.2801,1415.2018 L326.6968,1415.2018 L316.2801,1404.7852" fill="url(#g14mx10wxkfrxc0)" style="stroke:#033C73;stroke-width:1.0417;"/><text fill="#FFFFFF" font-family="Arial" font-size="12.5" lengthAdjust="spacing" textLength="111.7188" x="194.1447" y="1426.8046">Valid/Invalid/Type</text><rect fill="url(#g14mx10wxkfrxc1)" height="37.4674" rx="4.1667" ry="4.1667" style="stroke:#2FA4E7;stroke-width:1.0417;" width="108.0302" x="53.8228" y="1403.7435"/><text fill="#FFFFFF" font-family="Arial" font-size="12.5" lengthAdjust="spacing" textLength="85.1135" x="65.2812" y="1426.8046">Assign Labels</text><path d="M217.0156,1463.0859 L217.0156,1476.6113 L196.1823,1480.778 L217.0156,1484.9447 L217.0156,1498.4701 A0,0 0 0 0 217.0156,1498.4701 L356.9672,1498.4701 A0,0 0 0 0 356.9672,1498.4701 L356.9672,1473.5026 L346.5505,1463.0859 L217.0156,1463.0859 A0,0 0 0 0 217.0156,1463.0859" fill="url(#g14mx10wxkfrxc0)" style="stroke:#033C73;stroke-width:1.0417;"/><path d="M346.5505,1463.0859 L346.5505,1473.5026 L356.9672,1473.5026 L346.5505,1463.0859" fill="url(#g14mx10wxkfrxc0)" style="stroke:#033C73;stroke-width:1.0417;"/><text fill="#FFFFFF" font-family="Arial" font-size="12.5" lengthAdjust="spacing" textLength="107.6599" x="228.4739" y="1485.1054">Database update</text><rect fill="url(#g14mx10wxkfrxc1)" height="37.4674" rx="4.1667" ry="4.1667" style="stroke:#2FA4E7;stroke-width:1.0417;" width="176.6886" x="19.4936" y="1462.0443"/><text fill="#FFFFFF" font-family="Arial" font-size="12.5" lengthAdjust="spacing" textLength="153.772" x="30.9519" y="1485.1054">Update Detection Status</text><path d="M189.4399,1521.3867 L189.4399,1534.9121 L168.6066,1539.0788 L189.4399,1543.2454 L189.4399,1556.7708 A0,0 0 0 0 189.4399,1556.7708 L363.4796,1556.7708 A0,0 0 0 0 363.4796,1556.7708 L363.4796,1531.8034 L353.0629,1521.3867 L189.4399,1521.3867 A0,0 0 0 0 189.4399,1521.3867" fill="url(#g14mx10wxkfrxc0)" style="stroke:#033C73;stroke-width:1.0417;"/><path d="M353.0629,1521.3867 L353.0629,1531.8034 L363.4796,1531.8034 L353.0629,1521.3867" fill="url(#g14mx10wxkfrxc0)" style="stroke:#033C73;stroke-width:1.0417;"/><text fill="#FFFFFF" font-family="Arial" font-size="12.5" lengthAdjust="spacing" textLength="141.748" x="200.8982" y="1543.4062">ASTR-82: Alert System</text><rect fill="url(#g14mx10wxkfrxc1)" height="37.4674" rx="4.1667" ry="4.1667" style="stroke:#2FA4E7;stroke-width:1.0417;" width="121.5373" x="47.0693" y="1520.3451"/><text fill="#FFFFFF" font-family="Arial" font-size="12.5" lengthAdjust="spacing" textLength="98.6206" x="58.5276" y="1543.4062">Generate Alerts</text><path d="M188.9669,1579.6875 L188.9669,1593.2129 L168.1335,1597.3796 L188.9669,1601.5462 L188.9669,1615.0716 A0,0 0 0 0 188.9669,1615.0716 L383.8196,1615.0716 A0,0 0 0 0 383.8196,1615.0716 L383.8196,1590.1042 L373.4029,1579.6875 L188.9669,1579.6875 A0,0 0 0 0 188.9669,1579.6875" fill="url(#g14mx10wxkfrxc0)" style="stroke:#033C73;stroke-width:1.0417;"/><path d="M373.4029,1579.6875 L373.4029,1590.1042 L383.8196,1590.1042 L373.4029,1579.6875" fill="url(#g14mx10wxkfrxc0)" style="stroke:#033C73;stroke-width:1.0417;"/><text fill="#FFFFFF" font-family="Arial" font-size="12.5" lengthAdjust="spacing" textLength="162.561" x="200.4252" y="1601.7069">ASTR-83: Data Cataloging</text><rect fill="url(#g14mx10wxkfrxc1)" height="37.4674" rx="4.1667" ry="4.1667" style="stroke:#2FA4E7;stroke-width:1.0417;" width="120.5912" x="47.5423" y="1578.6458"/><text fill="#FFFFFF" font-family="Arial" font-size="12.5" lengthAdjust="spacing" textLength="97.6746" x="59.0007" y="1601.7069">Catalog Results</text><path d="M177.4984,1637.9883 L177.4984,1651.5137 L156.665,1655.6803 L177.4984,1659.847 L177.4984,1673.3724 A0,0 0 0 0 177.4984,1673.3724 L285.6323,1673.3724 A0,0 0 0 0 285.6323,1673.3724 L285.6323,1648.4049 L275.2157,1637.9883 L177.4984,1637.9883 A0,0 0 0 0 177.4984,1637.9883" fill="url(#g14mx10wxkfrxc0)" style="stroke:#033C73;stroke-width:1.0417;"/><path d="M275.2157,1637.9883 L275.2157,1648.4049 L285.6323,1648.4049 L275.2157,1637.9883" fill="url(#g14mx10wxkfrxc0)" style="stroke:#033C73;stroke-width:1.0417;"/><text fill="#FFFFFF" font-family="Arial" font-size="12.5" lengthAdjust="spacing" textLength="75.8423" x="188.9567" y="1660.0077">Final results</text><rect fill="url(#g14mx10wxkfrxc1)" height="37.4674" rx="4.1667" ry="4.1667" style="stroke:#2FA4E7;stroke-width:1.0417;" width="97.6542" x="59.0108" y="1636.9466"/><text fill="#FFFFFF" font-family="Arial" font-size="12.5" lengthAdjust="spacing" textLength="74.7375" x="70.4692" y="1660.0077">Export Data</text><ellipse cx="107.8379" cy="1706.7057" fill="none" rx="11.4583" ry="11.4583" style="stroke:#2683B9;stroke-width:1.0417;"/><ellipse cx="107.8379" cy="1706.7057" fill="none" rx="6.25" ry="6.25" style="stroke:#2683B9;stroke-width:1.0417;"/><line style="stroke:#2FA4E7;stroke-width:3.125;" x1="107.8379" x2="107.8379" y1="100.293" y2="121.1263"/><polygon fill="#2FA4E7" points="103.6713,110.7096,107.8379,121.1263,112.0046,110.7096,107.8379,114.8763" style="stroke:#2FA4E7;stroke-width:1.0417;"/><line style="stroke:#2FA4E7;stroke-width:3.125;" x1="107.8379" x2="107.8379" y1="158.5938" y2="179.4271"/><polygon fill="#2FA4E7" points="103.6713,169.0104,107.8379,179.4271,112.0046,169.0104,107.8379,173.1771" style="stroke:#2FA4E7;stroke-width:1.0417;"/><line style="stroke:#2FA4E7;stroke-width:3.125;" x1="107.8379" x2="107.8379" y1="216.8945" y2="237.7279"/><polygon fill="#2FA4E7" points="103.6713,227.3112,107.8379,237.7279,112.0046,227.3112,107.8379,231.4779" style="stroke:#2FA4E7;stroke-width:1.0417;"/><line style="stroke:#2FA4E7;stroke-width:3.125;" x1="107.8379" x2="107.8379" y1="275.1953" y2="296.0286"/><polygon fill="#2FA4E7" points="103.6713,285.612,107.8379,296.0286,112.0046,285.612,107.8379,289.7786" style="stroke:#2FA4E7;stroke-width:1.0417;"/><line style="stroke:#2FA4E7;stroke-width:3.125;" x1="107.8379" x2="107.8379" y1="333.4961" y2="354.3294"/><polygon fill="#2FA4E7" points="103.6713,343.9128,107.8379,354.3294,112.0046,343.9128,107.8379,348.0794" style="stroke:#2FA4E7;stroke-width:1.0417;"/><line style="stroke:#2FA4E7;stroke-width:3.125;" x1="107.8379" x2="107.8379" y1="391.7969" y2="412.6302"/><polygon fill="#2FA4E7" points="103.6713,402.2135,107.8379,412.6302,112.0046,402.2135,107.8379,406.3802" style="stroke:#2FA4E7;stroke-width:1.0417;"/><line style="stroke:#2FA4E7;stroke-width:3.125;" x1="107.8379" x2="107.8379" y1="450.0977" y2="470.931"/><polygon fill="#2FA4E7" points="103.6713,460.5143,107.8379,470.931,112.0046,460.5143,107.8379,464.681" style="stroke:#2FA4E7;stroke-width:1.0417;"/><line style="stroke:#2FA4E7;stroke-width:3.125;" x1="107.8379" x2="107.8379" y1="508.3984" y2="529.2318"/><polygon fill="#2FA4E7" points="103.6713,518.8151,107.8379,529.2318,112.0046,518.8151,107.8379,522.9818" style="stroke:#2FA4E7;stroke-width:1.0417;"/><line style="stroke:#2FA4E7;stroke-width:3.125;" x1="107.8379" x2="107.8379" y1="566.6992" y2="587.5326"/><polygon fill="#2FA4E7" points="103.6713,577.1159,107.8379,587.5326,112.0046,577.1159,107.8379,581.2826" style="stroke:#2FA4E7;stroke-width:1.0417;"/><line style="stroke:#2FA4E7;stroke-width:3.125;" x1="107.8379" x2="107.8379" y1="625" y2="645.8333"/><polygon fill="#2FA4E7" points="103.6713,635.4167,107.8379,645.8333,112.0046,635.4167,107.8379,639.5833" style="stroke:#2FA4E7;stroke-width:1.0417;"/><line style="stroke:#2FA4E7;stroke-width:3.125;" x1="107.8379" x2="107.8379" y1="683.3008" y2="704.1341"/><polygon fill="#2FA4E7" points="103.6713,693.7174,107.8379,704.1341,112.0046,693.7174,107.8379,697.8841" style="stroke:#2FA4E7;stroke-width:1.0417;"/><line style="stroke:#2FA4E7;stroke-width:3.125;" x1="107.8379" x2="107.8379" y1="741.6016" y2="762.4349"/><polygon fill="#2FA4E7" points="103.6713,752.0182,107.8379,762.4349,112.0046,752.0182,107.8379,756.1849" style="stroke:#2FA4E7;stroke-width:1.0417;"/><line style="stroke:#2FA4E7;stroke-width:3.125;" x1="107.8379" x2="107.8379" y1="799.9023" y2="820.7357"/><polygon fill="#2FA4E7" points="103.6713,810.319,107.8379,820.7357,112.0046,810.319,107.8379,814.4857" style="stroke:#2FA4E7;stroke-width:1.0417;"/><line style="stroke:#2FA4E7;stroke-width:3.125;" x1="107.8379" x2="107.8379" y1="858.2031" y2="879.0365"/><polygon fill="#2FA4E7" points="103.6713,868.6198,107.8379,879.0365,112.0046,868.6198,107.8379,872.7865" style="stroke:#2FA4E7;stroke-width:1.0417;"/><line style="stroke:#2FA4E7;stroke-width:3.125;" x1="107.8379" x2="107.8379" y1="916.5039" y2="937.3372"/><polygon fill="#2FA4E7" points="103.6713,926.9206,107.8379,937.3372,112.0046,926.9206,107.8379,931.0872" style="stroke:#2FA4E7;stroke-width:1.0417;"/><line style="stroke:#2FA4E7;stroke-width:3.125;" x1="107.8379" x2="107.8379" y1="974.8047" y2="995.638"/><polygon fill="#2FA4E7" points="103.6713,985.2214,107.8379,995.638,112.0046,985.2214,107.8379,989.388" style="stroke:#2FA4E7;stroke-width:1.0417;"/><line style="stroke:#2FA4E7;stroke-width:3.125;" x1="107.8379" x2="107.8379" y1="1033.1055" y2="1053.9388"/><polygon fill="#2FA4E7" points="103.6713,1043.5221,107.8379,1053.9388,112.0046,1043.5221,107.8379,1047.6888" style="stroke:#2FA4E7;stroke-width:1.0417;"/><line style="stroke:#2FA4E7;stroke-width:3.125;" x1="107.8379" x2="107.8379" y1="1091.4063" y2="1112.2396"/><polygon fill="#2FA4E7" points="103.6713,1101.8229,107.8379,1112.2396,112.0046,1101.8229,107.8379,1105.9896" style="stroke:#2FA4E7;stroke-width:1.0417;"/><line style="stroke:#2FA4E7;stroke-width:3.125;" x1="107.8379" x2="107.8379" y1="1149.707" y2="1170.5404"/><polygon fill="#2FA4E7" points="103.6713,1160.1237,107.8379,1170.5404,112.0046,1160.1237,107.8379,1164.2904" style="stroke:#2FA4E7;stroke-width:1.0417;"/><line style="stroke:#2FA4E7;stroke-width:3.125;" x1="107.8379" x2="107.8379" y1="1208.0078" y2="1228.8411"/><polygon fill="#2FA4E7" points="103.6713,1218.4245,107.8379,1228.8411,112.0046,1218.4245,107.8379,1222.5911" style="stroke:#2FA4E7;stroke-width:1.0417;"/><line style="stroke:#2FA4E7;stroke-width:3.125;" x1="107.8379" x2="107.8379" y1="1266.3086" y2="1287.1419"/><polygon fill="#2FA4E7" points="103.6713,1276.7253,107.8379,1287.1419,112.0046,1276.7253,107.8379,1280.8919" style="stroke:#2FA4E7;stroke-width:1.0417;"/><line style="stroke:#2FA4E7;stroke-width:3.125;" x1="107.8379" x2="107.8379" y1="1324.6094" y2="1345.4427"/><polygon fill="#2FA4E7" points="103.6713,1335.026,107.8379,1345.4427,112.0046,1335.026,107.8379,1339.1927" style="stroke:#2FA4E7;stroke-width:1.0417;"/><line style="stroke:#2FA4E7;stroke-width:3.125;" x1="107.8379" x2="107.8379" y1="1382.9102" y2="1403.7435"/><polygon fill="#2FA4E7" points="103.6713,1393.3268,107.8379,1403.7435,112.0046,1393.3268,107.8379,1397.4935" style="stroke:#2FA4E7;stroke-width:1.0417;"/><line style="stroke:#2FA4E7;stroke-width:3.125;" x1="107.8379" x2="107.8379" y1="1441.2109" y2="1462.0443"/><polygon fill="#2FA4E7" points="103.6713,1451.6276,107.8379,1462.0443,112.0046,1451.6276,107.8379,1455.7943" style="stroke:#2FA4E7;stroke-width:1.0417;"/><line style="stroke:#2FA4E7;stroke-width:3.125;" x1="107.8379" x2="107.8379" y1="1499.5117" y2="1520.3451"/><polygon fill="#2FA4E7" points="103.6713,1509.9284,107.8379,1520.3451,112.0046,1509.9284,107.8379,1514.0951" style="stroke:#2FA4E7;stroke-width:1.0417;"/><line style="stroke:#2FA4E7;stroke-width:3.125;" x1="107.8379" x2="107.8379" y1="1557.8125" y2="1578.6458"/><polygon fill="#2FA4E7" points="103.6713,1568.2292,107.8379,1578.6458,112.0046,1568.2292,107.8379,1572.3958" style="stroke:#2FA4E7;stroke-width:1.0417;"/><line style="stroke:#2FA4E7;stroke-width:3.125;" x1="107.8379" x2="107.8379" y1="1616.1133" y2="1636.9466"/><polygon fill="#2FA4E7" points="103.6713,1626.5299,107.8379,1636.9466,112.0046,1626.5299,107.8379,1630.6966" style="stroke:#2FA4E7;stroke-width:1.0417;"/><line style="stroke:#2FA4E7;stroke-width:3.125;" x1="107.8379" x2="107.8379" y1="1674.4141" y2="1695.2474"/><polygon fill="#2FA4E7" points="103.6713,1684.8307,107.8379,1695.2474,112.0046,1684.8307,107.8379,1688.9974" style="stroke:#2FA4E7;stroke-width:1.0417;"/><!--SRC=[ZLHTSzem47pthxXE7vkKa7Qc6Vf4JKYOoGV199dsJLY7qI1BpaacfR- -9niJpBZJFC5OktktUoTzy2lC4LAaKgCmaLihKmWIEIn4kix8baR6Lbk2ZsUZVh__xG0XSIbAxSVM-3l18aDIGdUV9-eFGlyyYhpocf7EqsG48-45ZBLzXQagK2k3KUIy81z5WylV7ia83Kb96zp2S3fntoDZFGAfREK7S3jCvYUGhBTF2bzF07twcNdt2uUq4LvP0nEJeGl_saJcpKw_VHqqqXFZCQEAmWA9juGm4wymdioJDZFMjfHBBGBW709IPDpp82OKZ3giFSFKacpJfzRvZ31vkAciBuGBv3cVPaWm9Ip8fkYSCbcREE8uMVO5dYsjaPWqB0gzXLXejQWxRnD-AE5w8q7htbWB3zmAORep-1mdCDGgCpaQtwQnl9OGM-vScU0esJgFEPCcEJjbKvdYqNKK31ErENfIAOX6V9_cjFQ54YgTDhMLP1F6I2sNI6ZITsIHe6Ppt5pDmAuYrzotvUPueLmzTSaJs0Vvw_xg9uUICSIlygvrkHZKigtEwZqbmTKJMn9xR5EJosclM5bVUgKTWyTAyrRps8nKNFyO_b1oT7uBVaNeLbPBjqzmNnNV7U4jRndwUkp_Y_362WcFftVeuTPAr1q9N9mDTeZsVPcLuQBjcZlY6PiBJbSsRGGxQMMd-NAKG6pDKidAfcDW7V4kWOR2WtRyh1mncmi5dpYDWnIUE5BPiR3NPIuC46xuyO2N4iiGNVrnLdtiYk2yuRsfXXNY6viPk14Br4TTLRZUn6ogt_cs25KUYp3x0qE95xxybv-oGZFj2WrI80urqh7zVN_LuTkzZLb6swmxivhqfIu6EsYpreLbdN3GvenLU9IfbWlFjIt-0W00]--></g></svg>
