<svg xmlns="http://www.w3.org/2000/svg" xmlns:xlink="http://www.w3.org/1999/xlink" contentStyleType="text/css" data-diagram-type="DESCRIPTION" height="853.125px" preserveAspectRatio="none" style="width:2222px;height:853px;background:#0D1117;" version="1.1" viewBox="0 0 2222 853" width="2222.9167px" zoomAndPan="magnify"><title>AstrID External Integrations</title><defs><linearGradient id="gifgtt3y15rs40" x1="50%" x2="50%" y1="0%" y2="100%"><stop offset="0%" stop-color="#59B6EC"/><stop offset="100%" stop-color="#2FA4E7"/></linearGradient><linearGradient id="gifgtt3y15rs41" x1="50%" x2="50%" y1="0%" y2="100%"><stop offset="0%" stop-color="#35638F"/><stop offset="100%" stop-color="#033C73"/></linearGradient></defs><g><rect fill="#0D1117" height="853.125" style="stroke:none;stroke-width:1.0417;" width="2222.9167" x="0" y="0"/><g class="title" data-source-line="6"><rect fill="none" height="47.168" rx="4.1667" ry="4.1667" style="stroke:#BABDBF;stroke-width:1.0417;" width="353.8493" x="929.9818" y="20.8333"/><text fill="#2FA4E7" font-family="Arial" font-size="20.8333" font-weight="bold" lengthAdjust="spacing" textLength="330.9326" x="941.4401" y="51.6296">AstrID External Integrations</text></g><!--cluster AstrID System--><g class="cluster" data-entity="AstrID System" data-source-line="8" data-uid="ent0002" id="cluster_AstrID System"><path d="M230.5833,125.8138 L339.6186,125.8138 A6.25,6.25 0 0 1 343.7852,129.9805 L351.0769,157.0313 L903.5,157.0313 A4.1667,4.1667 0 0 1 907.6667,161.1979 L907.6667,477.7826 A4.1667,4.1667 0 0 1 903.5,481.9492 L230.5833,481.9492 A4.1667,4.1667 0 0 1 226.4167,477.7826 L226.4167,129.9805 A4.1667,4.1667 0 0 1 230.5833,125.8138" fill="none" style="stroke:#59B6EC;stroke-width:2.0833;"/><line style="stroke:#59B6EC;stroke-width:2.0833;" x1="226.4167" x2="351.0769" y1="157.0313" y2="157.0313"/><text fill="#2FA4E7" font-family="Arial" font-size="12.5" font-weight="bold" lengthAdjust="spacing" textLength="100.7019" x="235.7917" y="144.7083">AstrID System</text></g><!--cluster External APIs--><g class="cluster" data-entity="External APIs" data-source-line="16" data-uid="ent0008" id="cluster_External APIs"><path d="M1221.2083,338.2305 L1323.6579,338.2305 A6.25,6.25 0 0 1 1327.8245,342.3971 L1335.1162,369.4479 L1751.4167,369.4479 A4.1667,4.1667 0 0 1 1755.5833,373.6146 L1755.5833,477.7826 A4.1667,4.1667 0 0 1 1751.4167,481.9492 L1221.2083,481.9492 A4.1667,4.1667 0 0 1 1217.0417,477.7826 L1217.0417,342.3971 A4.1667,4.1667 0 0 1 1221.2083,338.2305" fill="none" style="stroke:#59B6EC;stroke-width:2.0833;"/><line style="stroke:#59B6EC;stroke-width:2.0833;" x1="1217.0417" x2="1335.1162" y1="369.4479" y2="369.4479"/><text fill="#2FA4E7" font-family="Arial" font-size="12.5" font-weight="bold" lengthAdjust="spacing" textLength="94.1162" x="1226.4167" y="357.1249">External APIs</text></g><!--cluster Cloud Storage--><g class="cluster" data-entity="Cloud Storage" data-source-line="22" data-uid="ent0012" id="cluster_Cloud Storage"><path d="M388.9167,550.6471 L497.0852,550.6471 A6.25,6.25 0 0 1 501.2519,554.8138 L508.5435,581.8646 L597.25,581.8646 A4.1667,4.1667 0 0 1 601.4167,586.0313 L601.4167,837.043 A4.1667,4.1667 0 0 1 597.25,841.2096 L388.9167,841.2096 A4.1667,4.1667 0 0 1 384.75,837.043 L384.75,554.8138 A4.1667,4.1667 0 0 1 388.9167,550.6471" fill="none" style="stroke:#59B6EC;stroke-width:2.0833;"/><line style="stroke:#59B6EC;stroke-width:2.0833;" x1="384.75" x2="508.5435" y1="581.8646" y2="581.8646"/><text fill="#2FA4E7" font-family="Arial" font-size="12.5" font-weight="bold" lengthAdjust="spacing" textLength="99.8352" x="394.125" y="569.5416">Cloud Storage</text></g><!--cluster Data Flow--><g class="cluster" data-entity="Data Flow" data-source-line="27" data-uid="ent0015" id="cluster_Data Flow"><path d="M1701.4167,550.6471 L1780.2822,550.6471 A6.25,6.25 0 0 1 1784.4489,554.8138 L1791.7406,581.8646 L2186.8333,581.8646 A4.1667,4.1667 0 0 1 2191,586.0313 L2191,690.1992 A4.1667,4.1667 0 0 1 2186.8333,694.3659 L1701.4167,694.3659 A4.1667,4.1667 0 0 1 1697.25,690.1992 L1697.25,554.8138 A4.1667,4.1667 0 0 1 1701.4167,550.6471" fill="none" style="stroke:#59B6EC;stroke-width:2.0833;"/><line style="stroke:#59B6EC;stroke-width:2.0833;" x1="1697.25" x2="1791.7406" y1="581.8646" y2="581.8646"/><text fill="#2FA4E7" font-family="Arial" font-size="12.5" font-weight="bold" lengthAdjust="spacing" textLength="70.5322" x="1706.625" y="569.5416">Data Flow</text></g><!--entity MASTClient--><g class="entity" data-entity="MASTClient" data-source-line="9" data-uid="ent0003" id="entity_MASTClient"><rect fill="url(#gifgtt3y15rs40)" height="56.2174" rx="4.1667" ry="4.1667" style="stroke:#2FA4E7;stroke-width:1.0417;" width="127.1505" x="582.6354" y="196.6471"/><rect fill="url(#gifgtt3y15rs40)" height="10.4167" style="stroke:#2FA4E7;stroke-width:1.0417;" width="15.625" x="688.9526" y="201.8555"/><rect fill="url(#gifgtt3y15rs40)" height="2.0833" style="stroke:#2FA4E7;stroke-width:1.0417;" width="4.1667" x="686.8692" y="203.9388"/><rect fill="url(#gifgtt3y15rs40)" height="2.0833" style="stroke:#2FA4E7;stroke-width:1.0417;" width="4.1667" x="686.8692" y="208.1055"/><text fill="#FFFFFF" font-family="Arial" font-size="12.5" lengthAdjust="spacing" textLength="75.0671" x="603.4688" y="234.2916">MAST Client</text></g><!--entity SkyViewClient--><g class="entity" data-entity="SkyViewClient" data-source-line="10" data-uid="ent0004" id="entity_SkyViewClient"><rect fill="url(#gifgtt3y15rs40)" height="56.2174" rx="4.1667" ry="4.1667" style="stroke:#2FA4E7;stroke-width:1.0417;" width="144.753" x="746.75" y="196.6471"/><rect fill="url(#gifgtt3y15rs40)" height="10.4167" style="stroke:#2FA4E7;stroke-width:1.0417;" width="15.625" x="870.6697" y="201.8555"/><rect fill="url(#gifgtt3y15rs40)" height="2.0833" style="stroke:#2FA4E7;stroke-width:1.0417;" width="4.1667" x="868.5863" y="203.9388"/><rect fill="url(#gifgtt3y15rs40)" height="2.0833" style="stroke:#2FA4E7;stroke-width:1.0417;" width="4.1667" x="868.5863" y="208.1055"/><text fill="#FFFFFF" font-family="Arial" font-size="12.5" lengthAdjust="spacing" textLength="92.6697" x="767.5833" y="234.2916">SkyView Client</text></g><!--entity R2Client--><g class="entity" data-entity="R2Client" data-source-line="11" data-uid="ent0005" id="entity_R2Client"><rect fill="url(#gifgtt3y15rs40)" height="56.2174" rx="4.1667" ry="4.1667" style="stroke:#2FA4E7;stroke-width:1.0417;" width="161.7635" x="288.2396" y="409.0638"/><rect fill="url(#gifgtt3y15rs40)" height="10.4167" style="stroke:#2FA4E7;stroke-width:1.0417;" width="15.625" x="429.1698" y="414.2721"/><rect fill="url(#gifgtt3y15rs40)" height="2.0833" style="stroke:#2FA4E7;stroke-width:1.0417;" width="4.1667" x="427.0864" y="416.3555"/><rect fill="url(#gifgtt3y15rs40)" height="2.0833" style="stroke:#2FA4E7;stroke-width:1.0417;" width="4.1667" x="427.0864" y="420.5221"/><text fill="#FFFFFF" font-family="Arial" font-size="12.5" lengthAdjust="spacing" textLength="109.6802" x="309.0729" y="446.7083">R2 Storage Client</text></g><!--entity ObsService--><g class="entity" data-entity="ObsService" data-source-line="12" data-uid="ent0006" id="entity_ObsService"><rect fill="url(#gifgtt3y15rs40)" height="56.2174" rx="4.1667" ry="4.1667" style="stroke:#2FA4E7;stroke-width:1.0417;" width="178.3712" x="486.1875" y="409.0638"/><rect fill="url(#gifgtt3y15rs40)" height="10.4167" style="stroke:#2FA4E7;stroke-width:1.0417;" width="15.625" x="643.7253" y="414.2721"/><rect fill="url(#gifgtt3y15rs40)" height="2.0833" style="stroke:#2FA4E7;stroke-width:1.0417;" width="4.1667" x="641.642" y="416.3555"/><rect fill="url(#gifgtt3y15rs40)" height="2.0833" style="stroke:#2FA4E7;stroke-width:1.0417;" width="4.1667" x="641.642" y="420.5221"/><text fill="#FFFFFF" font-family="Arial" font-size="12.5" lengthAdjust="spacing" textLength="126.2878" x="507.0208" y="446.7083">Observation Service</text></g><!--entity PreprocessService--><g class="entity" data-entity="PreprocessService" data-source-line="13" data-uid="ent0007" id="entity_PreprocessService"><rect fill="url(#gifgtt3y15rs40)" height="56.2174" rx="4.1667" ry="4.1667" style="stroke:#2FA4E7;stroke-width:1.0417;" width="190.2608" x="701.0729" y="409.0638"/><rect fill="url(#gifgtt3y15rs40)" height="10.4167" style="stroke:#2FA4E7;stroke-width:1.0417;" width="15.625" x="870.5004" y="414.2721"/><rect fill="url(#gifgtt3y15rs40)" height="2.0833" style="stroke:#2FA4E7;stroke-width:1.0417;" width="4.1667" x="868.4171" y="416.3555"/><rect fill="url(#gifgtt3y15rs40)" height="2.0833" style="stroke:#2FA4E7;stroke-width:1.0417;" width="4.1667" x="868.4171" y="420.5221"/><text fill="#FFFFFF" font-family="Arial" font-size="12.5" lengthAdjust="spacing" textLength="138.1775" x="721.9063" y="446.7083">Preprocessing Service</text></g><!--entity MAST--><g class="entity" data-entity="MAST" data-source-line="17" data-uid="ent0009" id="entity_MAST"><rect fill="url(#gifgtt3y15rs40)" height="56.2174" rx="4.1667" ry="4.1667" style="stroke:#2FA4E7;stroke-width:1.0417;" width="110.7381" x="1462.7188" y="409.0638"/><rect fill="url(#gifgtt3y15rs40)" height="10.4167" style="stroke:#2FA4E7;stroke-width:1.0417;" width="15.625" x="1552.6235" y="414.2721"/><rect fill="url(#gifgtt3y15rs40)" height="2.0833" style="stroke:#2FA4E7;stroke-width:1.0417;" width="4.1667" x="1550.5402" y="416.3555"/><rect fill="url(#gifgtt3y15rs40)" height="2.0833" style="stroke:#2FA4E7;stroke-width:1.0417;" width="4.1667" x="1550.5402" y="420.5221"/><text fill="#FFFFFF" font-family="Arial" font-size="12.5" lengthAdjust="spacing" textLength="58.6548" x="1483.5521" y="446.7083">MAST API</text></g><!--entity SkyView--><g class="entity" data-entity="SkyView" data-source-line="18" data-uid="ent0010" id="entity_SkyView"><rect fill="url(#gifgtt3y15rs40)" height="56.2174" rx="4.1667" ry="4.1667" style="stroke:#2FA4E7;stroke-width:1.0417;" width="128.3407" x="1610.1667" y="409.0638"/><rect fill="url(#gifgtt3y15rs40)" height="10.4167" style="stroke:#2FA4E7;stroke-width:1.0417;" width="15.625" x="1717.674" y="414.2721"/><rect fill="url(#gifgtt3y15rs40)" height="2.0833" style="stroke:#2FA4E7;stroke-width:1.0417;" width="4.1667" x="1715.5907" y="416.3555"/><rect fill="url(#gifgtt3y15rs40)" height="2.0833" style="stroke:#2FA4E7;stroke-width:1.0417;" width="4.1667" x="1715.5907" y="420.5221"/><text fill="#FFFFFF" font-family="Arial" font-size="12.5" lengthAdjust="spacing" textLength="76.2573" x="1631" y="446.7083">SkyView API</text></g><!--entity Catalogs--><g class="entity" data-entity="Catalogs" data-source-line="19" data-uid="ent0011" id="entity_Catalogs"><rect fill="url(#gifgtt3y15rs40)" height="56.2174" rx="4.1667" ry="4.1667" style="stroke:#2FA4E7;stroke-width:1.0417;" width="192.5496" x="1233.2708" y="409.0638"/><rect fill="url(#gifgtt3y15rs40)" height="10.4167" style="stroke:#2FA4E7;stroke-width:1.0417;" width="15.625" x="1404.9871" y="414.2721"/><rect fill="url(#gifgtt3y15rs40)" height="2.0833" style="stroke:#2FA4E7;stroke-width:1.0417;" width="4.1667" x="1402.9038" y="416.3555"/><rect fill="url(#gifgtt3y15rs40)" height="2.0833" style="stroke:#2FA4E7;stroke-width:1.0417;" width="4.1667" x="1402.9038" y="420.5221"/><text fill="#FFFFFF" font-family="Arial" font-size="12.5" lengthAdjust="spacing" textLength="140.4663" x="1254.1042" y="446.7083">Astronomical Catalogs</text></g><!--entity R2--><g class="entity" data-entity="R2" data-source-line="23" data-uid="ent0013" id="entity_R2"><rect fill="url(#gifgtt3y15rs40)" height="56.2174" rx="4.1667" ry="4.1667" style="stroke:#2FA4E7;stroke-width:1.0417;" width="136.7635" x="401.7813" y="768.3242"/><rect fill="url(#gifgtt3y15rs40)" height="10.4167" style="stroke:#2FA4E7;stroke-width:1.0417;" width="15.625" x="517.7114" y="773.5326"/><rect fill="url(#gifgtt3y15rs40)" height="2.0833" style="stroke:#2FA4E7;stroke-width:1.0417;" width="4.1667" x="515.6281" y="775.6159"/><rect fill="url(#gifgtt3y15rs40)" height="2.0833" style="stroke:#2FA4E7;stroke-width:1.0417;" width="4.1667" x="515.6281" y="779.7826"/><text fill="#FFFFFF" font-family="Arial" font-size="12.5" lengthAdjust="spacing" textLength="84.6802" x="422.6146" y="805.9687">Cloudflare R2</text></g><!--entity CAS--><g class="entity" data-entity="CAS" data-source-line="24" data-uid="ent0014" id="entity_CAS"><rect fill="url(#gifgtt3y15rs40)" height="56.2174" rx="4.1667" ry="4.1667" style="stroke:#2FA4E7;stroke-width:1.0417;" width="175.3743" x="405.3958" y="621.4805"/><rect fill="url(#gifgtt3y15rs40)" height="10.4167" style="stroke:#2FA4E7;stroke-width:1.0417;" width="15.625" x="559.9368" y="626.6888"/><rect fill="url(#gifgtt3y15rs40)" height="2.0833" style="stroke:#2FA4E7;stroke-width:1.0417;" width="4.1667" x="557.8535" y="628.7721"/><rect fill="url(#gifgtt3y15rs40)" height="2.0833" style="stroke:#2FA4E7;stroke-width:1.0417;" width="4.1667" x="557.8535" y="632.9388"/><text fill="#FFFFFF" font-family="Arial" font-size="12.5" lengthAdjust="spacing" textLength="123.291" x="426.2292" y="659.1249">Content Addressing</text></g><!--entity FITS--><g class="entity" data-entity="FITS" data-source-line="28" data-uid="ent0016" id="entity_FITS"><rect fill="url(#gifgtt3y15rs40)" height="56.2174" rx="4.1667" ry="4.1667" style="stroke:#2FA4E7;stroke-width:1.0417;" width="110.8419" x="1861.625" y="621.4805"/><rect fill="url(#gifgtt3y15rs40)" height="10.4167" style="stroke:#2FA4E7;stroke-width:1.0417;" width="15.625" x="1951.6335" y="626.6888"/><rect fill="url(#gifgtt3y15rs40)" height="2.0833" style="stroke:#2FA4E7;stroke-width:1.0417;" width="4.1667" x="1949.5502" y="628.7721"/><rect fill="url(#gifgtt3y15rs40)" height="2.0833" style="stroke:#2FA4E7;stroke-width:1.0417;" width="4.1667" x="1949.5502" y="632.9388"/><text fill="#FFFFFF" font-family="Arial" font-size="12.5" lengthAdjust="spacing" textLength="58.7585" x="1882.4583" y="659.1249">FITS Files</text></g><!--entity RefImages--><g class="entity" data-entity="RefImages" data-source-line="29" data-uid="ent0017" id="entity_RefImages"><rect fill="url(#gifgtt3y15rs40)" height="56.2174" rx="4.1667" ry="4.1667" style="stroke:#2FA4E7;stroke-width:1.0417;" width="165.4989" x="2009.2917" y="621.4805"/><rect fill="url(#gifgtt3y15rs40)" height="10.4167" style="stroke:#2FA4E7;stroke-width:1.0417;" width="15.625" x="2153.9572" y="626.6888"/><rect fill="url(#gifgtt3y15rs40)" height="2.0833" style="stroke:#2FA4E7;stroke-width:1.0417;" width="4.1667" x="2151.8739" y="628.7721"/><rect fill="url(#gifgtt3y15rs40)" height="2.0833" style="stroke:#2FA4E7;stroke-width:1.0417;" width="4.1667" x="2151.8739" y="632.9388"/><text fill="#FFFFFF" font-family="Arial" font-size="12.5" lengthAdjust="spacing" textLength="113.4155" x="2030.125" y="659.1249">Reference Images</text></g><!--entity Metadata--><g class="entity" data-entity="Metadata" data-source-line="30" data-uid="ent0018" id="entity_Metadata"><rect fill="url(#gifgtt3y15rs40)" height="56.2174" rx="4.1667" ry="4.1667" style="stroke:#2FA4E7;stroke-width:1.0417;" width="111.2752" x="1713.4896" y="621.4805"/><rect fill="url(#gifgtt3y15rs40)" height="10.4167" style="stroke:#2FA4E7;stroke-width:1.0417;" width="15.625" x="1803.9315" y="626.6888"/><rect fill="url(#gifgtt3y15rs40)" height="2.0833" style="stroke:#2FA4E7;stroke-width:1.0417;" width="4.1667" x="1801.8481" y="628.7721"/><rect fill="url(#gifgtt3y15rs40)" height="2.0833" style="stroke:#2FA4E7;stroke-width:1.0417;" width="4.1667" x="1801.8481" y="632.9388"/><text fill="#FFFFFF" font-family="Arial" font-size="12.5" lengthAdjust="spacing" textLength="59.1919" x="1734.3229" y="659.1249">Metadata</text></g><g class="entity" data-entity="GMN39" data-source-line="65" data-uid="ent0040" id="entity_GMN39"><path d="M927.6458,189.4076 L927.6458,260.1107 A4.1667,4.1667 0 0 0 931.8125,264.2773 L1133.5113,264.2773 A4.1667,4.1667 0 0 0 1137.678,260.1107 L1137.678,195.6576 L1127.2613,185.2409 L931.8125,185.2409 A4.1667,4.1667 0 0 0 927.6458,189.4076" fill="url(#gifgtt3y15rs41)" style="stroke:#033C73;stroke-width:1.0417;"/><path d="M1127.2613,185.2409 L1127.2613,193.5742 A2.0833,2.0833 0 0 0 1129.3446,195.6576 L1137.678,195.6576 L1127.2613,185.2409" fill="url(#gifgtt3y15rs41)" style="stroke:#033C73;stroke-width:1.0417;"/><text fill="#FFFFFF" font-family="Arial" font-size="12.5" lengthAdjust="spacing" textLength="177.7405" x="939.1042" y="207.2603">ASTR-74: Survey Integration</text><text fill="#FFFFFF" font-family="Arial" font-size="12.5" lengthAdjust="spacing" textLength="151.7151" x="939.1042" y="221.8111">- Query by position/time</text><text fill="#FFFFFF" font-family="Arial" font-size="12.5" lengthAdjust="spacing" textLength="130.5603" x="939.1042" y="236.3619">- Download FITS files</text><text fill="#FFFFFF" font-family="Arial" font-size="12.5" lengthAdjust="spacing" textLength="117.8101" x="939.1042" y="250.9127">- Extract metadata</text></g><g class="entity" data-entity="GMN42" data-source-line="72" data-uid="ent0043" id="entity_GMN42"><path d="M1174.0833,189.4076 L1174.0833,260.1107 A4.1667,4.1667 0 0 0 1178.25,264.2773 L1395.4273,264.2773 A4.1667,4.1667 0 0 0 1399.594,260.1107 L1399.594,195.6576 L1389.1773,185.2409 L1178.25,185.2409 A4.1667,4.1667 0 0 0 1174.0833,189.4076" fill="url(#gifgtt3y15rs41)" style="stroke:#033C73;stroke-width:1.0417;"/><path d="M1389.1773,185.2409 L1389.1773,193.5742 A2.0833,2.0833 0 0 0 1391.2607,195.6576 L1399.594,195.6576 L1389.1773,185.2409" fill="url(#gifgtt3y15rs41)" style="stroke:#033C73;stroke-width:1.0417;"/><text fill="#FFFFFF" font-family="Arial" font-size="12.5" lengthAdjust="spacing" textLength="193.219" x="1185.5417" y="207.2603">Reference Image Management</text><text fill="#FFFFFF" font-family="Arial" font-size="12.5" lengthAdjust="spacing" textLength="148.4924" x="1185.5417" y="221.8111">- Multi-wavelength data</text><text fill="#FFFFFF" font-family="Arial" font-size="12.5" lengthAdjust="spacing" textLength="119.5801" x="1185.5417" y="236.3619">- Historical surveys</text><text fill="#FFFFFF" font-family="Arial" font-size="12.5" lengthAdjust="spacing" textLength="128.2715" x="1185.5417" y="250.9127">- Coverage checking</text></g><g class="entity" data-entity="GMN45" data-source-line="79" data-uid="ent0046" id="entity_GMN45"><path d="M1775.3854,401.8242 L1775.3854,472.5273 A4.1667,4.1667 0 0 0 1779.5521,476.694 L1954.5358,476.694 A4.1667,4.1667 0 0 0 1958.7025,472.5273 L1958.7025,408.0742 L1948.2858,397.6576 L1779.5521,397.6576 A4.1667,4.1667 0 0 0 1775.3854,401.8242" fill="url(#gifgtt3y15rs41)" style="stroke:#033C73;stroke-width:1.0417;"/><path d="M1948.2858,397.6576 L1948.2858,405.9909 A2.0833,2.0833 0 0 0 1950.3691,408.0742 L1958.7025,408.0742 L1948.2858,397.6576" fill="url(#gifgtt3y15rs41)" style="stroke:#033C73;stroke-width:1.0417;"/><text fill="#FFFFFF" font-family="Arial" font-size="12.5" lengthAdjust="spacing" textLength="149.9939" x="1786.8438" y="419.677">ASTR-71: Cloud Storage</text><text fill="#FFFFFF" font-family="Arial" font-size="12.5" lengthAdjust="spacing" textLength="130.8838" x="1786.8438" y="434.2278">- Content addressing</text><text fill="#FFFFFF" font-family="Arial" font-size="12.5" lengthAdjust="spacing" textLength="102.9968" x="1786.8438" y="448.7786">- Version control</text><text fill="#FFFFFF" font-family="Arial" font-size="12.5" lengthAdjust="spacing" textLength="151.0254" x="1786.8438" y="463.3293">- Lifecycle management</text></g><!--link MASTClient to MAST--><g class="link" data-entity-1="MASTClient" data-entity-2="MAST" data-source-line="34" data-uid="lnk19" id="link_MASTClient_MAST"><path d="M697.3646,253.2513 C707.4375,257.6367 718.1146,261.5951 728.5,264.2721 C931.1563,316.4284 1000.7813,226.3867 1198.2917,295.5221 C1217.4479,302.2305 1216.5521,315.1159 1235.7917,321.5638 C1257.7604,328.9284 1423.8125,318.7617 1444.125,329.8971 C1475.2604,346.9596 1493.5745,377.7271 1504.9912,403.1438" fill="none" id="MASTClient-to-MAST" style="stroke:#2FA4E7;stroke-width:3.125;"/><polygon fill="#2FA4E7" points="1507.5521,408.8451,1507.5116,398.5859,1505.418,404.094,1499.9099,402.0004,1507.5521,408.8451" style="stroke:#2FA4E7;stroke-width:3.125;"/><text fill="#343A40" font-family="Arial" font-size="12.5" lengthAdjust="spacing" textLength="122.3999" x="1242.0417" y="313.3749">Query observations</text></g><!--link MAST to MASTClient--><g class="link" data-entity-1="MAST" data-entity-2="MASTClient" data-source-line="35" data-uid="lnk20" id="link_MAST_MASTClient"><path d="M1506.1146,408.668 C1494.0208,384.2201 1473,349.3867 1444.125,329.8971 C1430.3438,320.5951 1422.6771,328.6992 1407.6667,321.5638 C1390.6875,313.4909 1391.9583,302.0742 1374.3333,295.5221 C1239.6458,245.4701 867.9688,298.8242 728.5,264.2721 C717.9375,261.6576 712.8244,260.1519 702.6057,255.704" fill="none" id="MAST-to-MASTClient" style="stroke:#2FA4E7;stroke-width:3.125;"/><polygon fill="#2FA4E7" points="696.875,253.2096,703.8081,260.7717,701.6506,255.2883,707.1339,253.1308,696.875,253.2096" style="stroke:#2FA4E7;stroke-width:3.125;"/><text fill="#343A40" font-family="Arial" font-size="12.5" lengthAdjust="spacing" textLength="140.6738" x="1413.9167" y="313.3749">Observation metadata</text></g><!--link MASTClient to ObsService--><g class="link" data-entity-1="MASTClient" data-entity-2="ObsService" data-source-line="36" data-uid="lnk21" id="link_MASTClient_ObsService"><path d="M636.9479,253.293 C623.375,293.6055 600.2144,362.391 586.6311,402.7035" fill="none" id="MASTClient-to-ObsService" style="stroke:#2FA4E7;stroke-width:3.125;"/><polygon fill="#2FA4E7" points="584.6354,408.6263,591.5775,401.0725,586.2985,403.6906,583.6804,398.4116,584.6354,408.6263" style="stroke:#2FA4E7;stroke-width:3.125;"/><text fill="#343A40" font-family="Arial" font-size="12.5" lengthAdjust="spacing" textLength="108.2458" x="628.5" y="313.3749">Observation data</text></g><!--link MASTClient to R2Client--><g class="link" data-entity-1="MASTClient" data-entity-2="R2Client" data-source-line="37" data-uid="lnk22" id="link_MASTClient_R2Client"><path d="M582.4583,228.3451 C487.1354,233.6471 314.5729,249.5013 276.4167,295.5221 C245.9063,332.3242 287.2643,375.6198 324.6914,404.8906" fill="none" id="MASTClient-to-R2Client" style="stroke:#2FA4E7;stroke-width:3.125;"/><polygon fill="#2FA4E7" points="329.6146,408.7409,324.7967,399.6833,325.5119,405.5323,319.6629,406.2476,329.6146,408.7409" style="stroke:#2FA4E7;stroke-width:3.125;"/><text fill="#343A40" font-family="Arial" font-size="12.5" lengthAdjust="spacing" textLength="122.0764" x="282.6667" y="313.3749">Download FITS files</text></g><!--link R2Client to R2--><g class="link" data-entity-1="R2Client" data-entity-2="R2" data-source-line="38" data-uid="lnk23" id="link_R2Client_R2"><path d="M288,440.5951 C214.9375,447.5742 111.3438,470.5221 59.75,542.3138 C18.1563,600.1992 16.6667,645.918 59.75,702.6992 C100.4792,756.3867 289.4519,780.2778 395.3061,789.7465" fill="none" id="R2Client-to-R2" style="stroke:#2FA4E7;stroke-width:3.125;"/><polygon fill="#2FA4E7" points="401.5313,790.3034,392.5648,785.318,396.3436,789.8393,391.8223,793.6182,401.5313,790.3034" style="stroke:#2FA4E7;stroke-width:3.125;"/><text fill="#343A40" font-family="Arial" font-size="12.5" lengthAdjust="spacing" textLength="93.2556" x="66" y="654.427">Store FITS files</text></g><!--link R2Client to R2--><g class="link" data-entity-1="R2Client" data-entity-2="R2" data-source-line="45" data-uid="lnk28" id="link_R2Client_R2"><path d="M308.6042,465.7721 C278.3229,483.0742 244.5521,508.5534 227.4583,542.3138 C195.2708,605.918 187.0313,643.9909 227.4583,702.6992 C266.2708,759.0742 338.1746,780.2529 395.3309,788.9092" fill="none" id="R2Client-to-R2-1" style="stroke:#2FA4E7;stroke-width:3.125;"/><polygon fill="#2FA4E7" points="401.5104,789.8451,392.865,784.3215,396.3608,789.0651,391.6172,792.5609,401.5104,789.8451" style="stroke:#2FA4E7;stroke-width:3.125;"/><text fill="#343A40" font-family="Arial" font-size="12.5" lengthAdjust="spacing" textLength="146.9421" x="233.7083" y="654.427">Store reference images</text></g><!--link R2Client to R2--><g class="link" data-entity-1="R2Client" data-entity-2="R2" data-source-line="52" data-uid="lnk31" id="link_R2Client_R2"><path d="M414.125,465.6367 C430.6042,474.6576 449.7188,483.9805 468.0833,490.2826 C510.3438,504.7826 527.7604,486.6576 567.0417,507.9388 C585.4688,517.9284 589.8646,523.6159 599.3333,542.3138 C638.9271,620.5326 680.8854,665.2721 630.5833,737.0742 C609.8438,766.6888 578.5475,779.9983 545.0683,787.2066" fill="none" id="R2Client-to-R2-2" style="stroke:#2FA4E7;stroke-width:3.125;"/><polygon fill="#2FA4E7" points="538.9583,788.5221,549.0003,790.6222,544.05,787.4259,547.2463,782.4755,538.9583,788.5221" style="stroke:#2FA4E7;stroke-width:3.125;"/><text fill="#343A40" font-family="Arial" font-size="12.5" lengthAdjust="spacing" textLength="139.6667" x="659.75" y="654.427">Upload/Download files</text></g><!--link SkyViewClient to SkyView--><g class="link" data-entity-1="SkyViewClient" data-entity-2="SkyView" data-source-line="41" data-uid="lnk24" id="link_SkyViewClient_SkyView"><path d="M875.1458,253.1888 C886.3646,257.6471 898.25,261.6471 909.75,264.2721 C981.2604,280.5951 1504.3333,261.1367 1569.125,295.5221 C1615.4479,320.1055 1644.3625,369.4698 1660.0917,402.9386" fill="none" id="SkyViewClient-to-SkyView" style="stroke:#2FA4E7;stroke-width:3.125;"/><polygon fill="#2FA4E7" points="1662.75,408.5951,1662.5335,398.3381,1660.5347,403.8813,1654.9915,401.8826,1662.75,408.5951" style="stroke:#2FA4E7;stroke-width:3.125;"/><text fill="#343A40" font-family="Arial" font-size="12.5" lengthAdjust="spacing" textLength="135.907" x="1608.7083" y="313.3749">Get reference images</text></g><!--link SkyView to SkyViewClient--><g class="link" data-entity-1="SkyView" data-entity-2="SkyViewClient" data-source-line="42" data-uid="lnk25" id="link_SkyView_SkyViewClient"><path d="M1699,408.8034 C1729.6979,373.2513 1776.0938,313.5638 1758.7083,295.5221 C1725.9583,261.543 955.8125,274.5326 909.75,264.2721 C898.2396,261.7096 892.1556,260.0293 880.9369,255.5918" fill="none" id="SkyView-to-SkyViewClient" style="stroke:#2FA4E7;stroke-width:3.125;"/><polygon fill="#2FA4E7" points="875.125,253.293,882.3102,260.6158,879.9682,255.2087,885.3754,252.8667,875.125,253.293" style="stroke:#2FA4E7;stroke-width:3.125;"/><text fill="#343A40" font-family="Arial" font-size="12.5" lengthAdjust="spacing" textLength="89.801" x="1768.0833" y="313.3749">Image cutouts</text></g><!--link SkyViewClient to PreprocessService--><g class="link" data-entity-1="SkyViewClient" data-entity-2="PreprocessService" data-source-line="43" data-uid="lnk26" id="link_SkyViewClient_PreprocessService"><path d="M799.7292,253.2513 C792.1771,265.5742 784.4167,280.6576 780.5833,295.5221 C770.6458,334.0534 777.8844,374.1 785.7594,402.7354" fill="none" id="SkyViewClient-to-PreprocessService" style="stroke:#2FA4E7;stroke-width:3.125;"/><polygon fill="#2FA4E7" points="787.4167,408.7617,788.9483,398.6175,786.0356,403.7398,780.9132,400.8272,787.4167,408.7617" style="stroke:#2FA4E7;stroke-width:3.125;"/><text fill="#343A40" font-family="Arial" font-size="12.5" lengthAdjust="spacing" textLength="95.9106" x="786.8333" y="313.3749">Reference data</text></g><!--link SkyViewClient to R2Client--><g class="link" data-entity-1="SkyViewClient" data-entity-2="R2Client" data-source-line="44" data-uid="lnk27" id="link_SkyViewClient_R2Client"><path d="M760.9688,253.2409 C750.3438,257.4596 739.2292,261.3659 728.5,264.2721 C622.625,292.918 579.5938,242.2721 483.7083,295.5221 C436.6354,321.668 404.3533,370.1601 386.0929,403.0976" fill="none" id="SkyViewClient-to-R2Client" style="stroke:#2FA4E7;stroke-width:3.125;"/><polygon fill="#2FA4E7" points="383.0625,408.5638,391.2522,402.3848,385.5879,404.0087,383.964,398.3443,383.0625,408.5638" style="stroke:#2FA4E7;stroke-width:3.125;"/><text fill="#343A40" font-family="Arial" font-size="12.5" lengthAdjust="spacing" textLength="111.554" x="489.9583" y="313.3749">Download images</text></g><!--link ObsService to Catalogs--><g class="link" data-entity-1="ObsService" data-entity-2="Catalogs" data-source-line="48" data-uid="lnk29" id="link_ObsService_Catalogs"><path d="M594.0208,408.7096 C612.875,382.7513 644.6042,346.0742 682.6667,329.8971 C759.8958,297.0846 977.9583,309.668 1060.2708,325.9909 C1139.6458,341.7305 1219.4414,378.353 1272.2851,405.7593" fill="none" id="ObsService-to-Catalogs" style="stroke:#2FA4E7;stroke-width:3.125;"/><polygon fill="#2FA4E7" points="1277.8333,408.6367,1271.4293,400.6217,1273.2098,406.2388,1267.5927,408.0193,1277.8333,408.6367" style="stroke:#2FA4E7;stroke-width:3.125;"/><text fill="#343A40" font-family="Arial" font-size="12.5" lengthAdjust="spacing" textLength="151.5564" x="902.9792" y="313.3749">Cross-reference sources</text></g><!--link Catalogs to ObsService--><g class="link" data-entity-1="Catalogs" data-entity-2="ObsService" data-source-line="49" data-uid="lnk30" id="link_Catalogs_ObsService"><path d="M1306.7083,408.9284 C1282.75,381.7513 1242.3542,342.4284 1197.25,325.9909 C1089.8021,286.8346 788.0938,285.6055 682.6667,329.8971 C644.5417,345.918 616.488,377.5741 597.6651,403.5741" fill="none" id="Catalogs-to-ObsService" style="stroke:#2FA4E7;stroke-width:3.125;"/><polygon fill="#2FA4E7" points="594,408.6367,602.8727,403.4863,597.0542,404.4179,596.1226,398.5995,594,408.6367" style="stroke:#2FA4E7;stroke-width:3.125;"/><text fill="#343A40" font-family="Arial" font-size="12.5" lengthAdjust="spacing" textLength="119.5435" x="1072.25" y="313.3749">Source information</text></g><!--link R2Client to CAS--><g class="link" data-entity-1="R2Client" data-entity-2="CAS" data-source-line="53" data-uid="lnk32" id="link_R2Client_CAS"><path d="M385.3333,465.7096 C409.0833,506.0221 449.941,575.3461 473.7014,615.6586" fill="none" id="R2Client-to-CAS" style="stroke:#2FA4E7;stroke-width:3.125;"/><polygon fill="#2FA4E7" points="476.875,621.043,475.7042,610.8508,474.2304,616.556,468.5251,615.0822,476.875,621.043" style="stroke:#2FA4E7;stroke-width:3.125;"/><text fill="#343A40" font-family="Arial" font-size="12.5" lengthAdjust="spacing" textLength="122.3999" x="430.5833" y="525.7916">Content addressing</text></g><!--link CAS to R2--><g class="link" data-entity-1="CAS" data-entity-2="R2" data-source-line="54" data-uid="lnk33" id="link_CAS_R2"><path d="M486.2396,678.168 C483.8646,688.4388 481.3438,700.2201 479.5417,711.0326 C476.3854,729.9284 474.5982,745.1644 473.0357,761.7061" fill="none" id="CAS-to-R2" style="stroke:#2FA4E7;stroke-width:3.125;"/><polygon fill="#2FA4E7" points="472.4479,767.9284,477.4777,758.9868,472.9377,762.7431,469.1813,758.2031,472.4479,767.9284" style="stroke:#2FA4E7;stroke-width:3.125;"/><text fill="#343A40" font-family="Arial" font-size="12.5" lengthAdjust="spacing" textLength="134.5703" x="485.7917" y="728.8853">Deduplicated storage</text></g><!--link MASTClient to FITS--><g class="link" data-entity-1="MASTClient" data-entity-2="FITS" data-source-line="57" data-uid="lnk34" id="link_MASTClient_FITS"><path d="M696.8333,253.3867 C707.0521,257.8138 717.9063,261.7721 728.5,264.2721 C863.6146,296.2409 1895.0625,217.3763 1976.4167,329.8971 C2041.8646,420.418 1973.3463,556.7912 1937.8046,615.885" fill="none" id="MASTClient-to-FITS" style="stroke:#2FA4E7;stroke-width:3.125;"/><polygon fill="#2FA4E7" points="1934.5833,621.2409,1942.9859,615.3545,1937.2677,616.7776,1935.8447,611.0595,1934.5833,621.2409" style="stroke:#2FA4E7;stroke-width:3.125;"/><text fill="#343A40" font-family="Arial" font-size="12.5" lengthAdjust="spacing" textLength="68.6462" x="2008.7083" y="442.0103">Downloads</text></g><!--link SkyViewClient to RefImages--><g class="link" data-entity-1="SkyViewClient" data-entity-2="RefImages" data-source-line="58" data-uid="lnk35" id="link_SkyViewClient_RefImages"><path d="M875.1042,253.3555 C886.3333,257.793 898.2292,261.7513 909.75,264.2721 C1038.1563,292.3971 2010.8229,225.7305 2091,329.8971 C2158.1458,417.1367 2123.4788,555.3542 2103.8434,615.2292" fill="none" id="SkyViewClient-to-RefImages" style="stroke:#2FA4E7;stroke-width:3.125;"/><polygon fill="#2FA4E7" points="2101.8958,621.168,2108.7764,613.5581,2103.5188,616.219,2100.858,610.9614,2101.8958,621.168" style="stroke:#2FA4E7;stroke-width:3.125;"/><text fill="#343A40" font-family="Arial" font-size="12.5" lengthAdjust="spacing" textLength="68.6462" x="2135.7917" y="442.0103">Downloads</text></g><!--link ObsService to Metadata--><g class="link" data-entity-1="ObsService" data-entity-2="Metadata" data-source-line="59" data-uid="lnk36" id="link_ObsService_Metadata"><path d="M624.0313,465.7409 C641.9688,474.8346 662.7813,484.168 682.6667,490.2826 C1064.8229,607.7617 1543.8607,638.6954 1706.7357,646.1329" fill="none" id="ObsService-to-Metadata" style="stroke:#2FA4E7;stroke-width:3.125;"/><polygon fill="#2FA4E7" points="1712.9792,646.418,1703.804,641.828,1707.7763,646.1804,1703.4239,650.1526,1712.9792,646.418" style="stroke:#2FA4E7;stroke-width:3.125;"/><text fill="#343A40" font-family="Arial" font-size="12.5" lengthAdjust="spacing" textLength="51.2817" x="832.6667" y="525.7916">Extracts</text></g><!--link PreprocessService to FITS--><g class="link" data-entity-1="PreprocessService" data-entity-2="FITS" data-source-line="60" data-uid="lnk37" id="link_PreprocessService_FITS"><path d="M891.7708,451.1471 C976.9896,462.418 1105.1875,478.7201 1217.0417,490.2826 C1355.9063,504.6367 1722.125,472.6159 1843.0833,542.3138 C1873.6563,559.9284 1891.9294,590.2192 1903.5127,615.3963" fill="none" id="PreprocessService-to-FITS" style="stroke:#2FA4E7;stroke-width:3.125;"/><polygon fill="#2FA4E7" points="1906.125,621.0742,1905.9919,610.8159,1903.9481,616.3426,1898.4213,614.2989,1906.125,621.0742" style="stroke:#2FA4E7;stroke-width:3.125;"/><text fill="#343A40" font-family="Arial" font-size="12.5" lengthAdjust="spacing" textLength="62.1155" x="1824.3333" y="525.7916">Processes</text></g><!--link PreprocessService to RefImages--><g class="link" data-entity-1="PreprocessService" data-entity-2="RefImages" data-source-line="61" data-uid="lnk38" id="link_PreprocessService_RefImages"><path d="M891.6354,452.7096 C976.7604,464.9909 1104.9063,481.918 1217.0417,490.2826 C1368.5208,501.5846 1751.3229,478.6263 1900.375,507.9388 C1942.6458,516.2513 1955.125,518.4701 1991,542.3138 C2023.4375,563.8659 2049.3119,592.7022 2068.0098,616.3584" fill="none" id="PreprocessService-to-RefImages" style="stroke:#2FA4E7;stroke-width:3.125;"/><polygon fill="#2FA4E7" points="2071.8854,621.2617,2069.3409,611.323,2068.6558,617.1756,2062.8032,616.4905,2071.8854,621.2617" style="stroke:#2FA4E7;stroke-width:3.125;"/><text fill="#343A40" font-family="Arial" font-size="12.5" lengthAdjust="spacing" textLength="29.8645" x="1982.6667" y="525.7916">Uses</text></g><!--link MASTClient to GMN39--><g class="link" data-entity-1="MASTClient" data-entity-2="GMN39" data-source-line="65" data-uid="lnk41" id="link_MASTClient_GMN39"><path d="M658.5521,196.3138 C673.9375,165.2617 703.5521,117.8242 746.7292,101.8555 C776.4688,90.8555 859.6979,90.8555 889.4375,101.8555 C934,118.3346 974.0313,155.5742 1000.3646,184.7721" fill="none" id="MASTClient-GMN39" style="stroke:#2FA4E7;stroke-width:3.125;stroke-dasharray:7.2917,7.2917;"/></g><!--link SkyViewClient to GMN42--><g class="link" data-entity-1="SkyViewClient" data-entity-2="GMN42" data-source-line="72" data-uid="lnk44" id="link_SkyViewClient_GMN42"><path d="M833.4167,196.2305 C850.8125,165.3555 883.4688,118.3242 927.9792,101.8555 C971.6146,85.7096 1093.5521,86.1576 1137.3542,101.8555 C1183.2188,118.2826 1225.0833,155.5326 1252.7604,184.7409" fill="none" id="SkyViewClient-GMN42" style="stroke:#2FA4E7;stroke-width:3.125;stroke-dasharray:7.2917,7.2917;"/></g><!--link R2Client to GMN45--><g class="link" data-entity-1="R2Client" data-entity-2="GMN45" data-source-line="79" data-uid="lnk47" id="link_R2Client_GMN45"><path d="M383.0521,408.6888 C401.4063,374.8346 437.1875,320.0326 486.3125,297.0846 C549.2813,267.668 1673.6667,269.2513 1737.3542,297.0846 C1783.8229,317.3867 1821.0729,363.4596 1843.5208,397.2513" fill="none" id="R2Client-GMN45" style="stroke:#2FA4E7;stroke-width:3.125;stroke-dasharray:7.2917,7.2917;"/></g><!--SRC=[TLLBRzim3BxxLt3POQUWIp6WG0y3WcJP0gnRLhUz33keDkC8bQL0afDbm_xxg8TjsKbpYKb-ukCZARsnEwmH2jIDG2OpyyBbdcbMmpChNYgj6bakb50QthvVpcQpcmHHufOrmgwKjDyOEPbhpiHbUyx_8CokiynoAmXfh5uluTDlYreo0MjfiTBCSYLDbkqfCgiG9X6Mdup5UW9_Cw3Vpxjv_W0BmL7QNy0CE3c8mPw_d9uu7bD8LAMe-sl8hT8kJWAylquntvyDweDF2tBwuWLw5EcZ670RZNkj2ZI6osg0x2tjWNz9VLtzyytQ3EiZJLVSiApM4kLWT4mfgMfUaBS5iqoeodXOAmm2BuHgohR-Bh3NRWNJI3n4EgA5MaYimBmiTQWo-9xd0xTBYWKheOwTozNw8OSL5nYISMAa7xUeKHO8wvhE1ZCfWnI9GCjASXc8Y88B-CxJaavDrWy1JASVW_qM9ZyQr2TGVH_Dn4CxK3n3qBJPTGms6VljEpy-SX7UZfC3BzLH2iLAJm9i7IUJh0C4jCEvhk00HFMspKzB7WorTz2YoCjdjA0xZhbdTT8UIS5zWfvwA1gh6jjZ4_Tdm-nEzOqC39mVkqX2cz6h19mdJpJ4OHxGaBJ4-MZdtNbQQ6NCjFTaLACBvwe3dVSqznZWSgjqxIE41iIx8ery8VV7lQlkgYlpKfjfQtnoSQTOjrEK5vbwPqiicxsWbRPOWedBwfBfzcmyRtvg4feljh7RiX5oH6IxS0v55vLcXPkAynb8usw22Ly53c8_cjZMX5JOA2wjoQIoD0EysbbGs-4LJz_tqviFjv0t-e2dGKi0fX1s_la4UsMuqrvPNgCtNTX1hu_rTNkVeIp1fP2D4Xa_9ADh3EwOfByw6ATmHyyVdnxP0GNAokxyZdZB5-uQwgzhuyi8YIpK0VsS5Jiiw26jNiqaUQa28RDR65phqTzuoBpw2RLnP1TarafutLU-nU9KqEjSzqMqqVy3]--></g></svg>
