<svg xmlns="http://www.w3.org/2000/svg" xmlns:xlink="http://www.w3.org/1999/xlink" contentStyleType="text/css" data-diagram-type="SEQUENCE" height="2221.875px" preserveAspectRatio="none" style="width:2096px;height:2221px;background:#0D1117;" version="1.1" viewBox="0 0 2096 2221" width="2096.875px" zoomAndPan="magnify"><title>AstrID Observation Processing Sequence</title><defs><linearGradient id="g5g8fypc4qts40" x1="50%" x2="50%" y1="0%" y2="100%"><stop offset="0%" stop-color="#59B6EC"/><stop offset="100%" stop-color="#2FA4E7"/></linearGradient><linearGradient id="g5g8fypc4qts41" x1="50%" x2="50%" y1="0%" y2="100%"><stop offset="0%" stop-color="#FFFFFF"/><stop offset="100%" stop-color="#F8F9FA"/></linearGradient></defs><g><rect fill="#0D1117" height="2221.875" style="stroke:none;stroke-width:1.0417;" width="2096.875" x="0" y="0"/><rect fill="none" height="47.168" rx="4.1667" ry="4.1667" style="stroke:#BABDBF;stroke-width:1.0417;" width="504.128" x="795.2245" y="20.8333"/><text fill="#2FA4E7" font-family="Arial" font-size="20.8333" font-weight="bold" lengthAdjust="spacing" textLength="481.2113" x="806.6828" y="51.6296">AstrID Observation Processing Sequence</text><g><title>External Survey</title><rect fill="#000000" fill-opacity="0.00000" height="1956.9336" width="8.3333" x="69.5597" y="167.9688"/><line style="stroke:#BABDBF;stroke-width:1.0417;stroke-dasharray:5.2083,5.2083;" x1="72.9167" x2="72.9167" y1="167.9688" y2="2124.9023"/></g><g><title>MAST Client</title><rect fill="#000000" fill-opacity="0.00000" height="1956.9336" width="8.3333" x="332.6192" y="167.9688"/><line style="stroke:#BABDBF;stroke-width:1.0417;stroke-dasharray:5.2083,5.2083;" x1="336.7523" x2="336.7523" y1="167.9688" y2="2124.9023"/></g><g><title>Observation Service</title><rect fill="#000000" fill-opacity="0.00000" height="1956.9336" width="8.3333" x="552.0467" y="167.9688"/><line style="stroke:#BABDBF;stroke-width:1.0417;stroke-dasharray:5.2083,5.2083;" x1="555.5695" x2="555.5695" y1="167.9688" y2="2124.9023"/></g><g><title>Database</title><rect fill="#000000" fill-opacity="0.00000" height="1956.9336" width="8.3333" x="763.7624" y="167.9688"/><line style="stroke:#BABDBF;stroke-width:1.0417;stroke-dasharray:5.2083,5.2083;" x1="767.274" x2="767.274" y1="167.9688" y2="2124.9023"/></g><g><title>R2 Storage</title><rect fill="#000000" fill-opacity="0.00000" height="1956.9336" width="8.3333" x="947.0937" y="167.9688"/><line style="stroke:#BABDBF;stroke-width:1.0417;stroke-dasharray:5.2083,5.2083;" x1="950.8759" x2="950.8759" y1="167.9688" y2="2124.9023"/></g><g><title>Preprocessing Worker</title><rect fill="#000000" fill-opacity="0.00000" height="1956.9336" width="8.3333" x="1169.2006" y="167.9688"/><line style="stroke:#BABDBF;stroke-width:1.0417;stroke-dasharray:5.2083,5.2083;" x1="1172.4782" x2="1172.4782" y1="167.9688" y2="2124.9023"/></g><g><title>Differencing Worker</title><rect fill="#000000" fill-opacity="0.00000" height="1956.9336" width="8.3333" x="1419.4143" y="167.9688"/><line style="stroke:#BABDBF;stroke-width:1.0417;stroke-dasharray:5.2083,5.2083;" x1="1423.2147" x2="1423.2147" y1="167.9688" y2="2124.9023"/></g><g><title>Detection Worker</title><rect fill="#000000" fill-opacity="0.00000" height="1956.9336" width="8.3333" x="1655.9865" y="167.9688"/><line style="stroke:#BABDBF;stroke-width:1.0417;stroke-dasharray:5.2083,5.2083;" x1="1659.3638" x2="1659.3638" y1="167.9688" y2="2124.9023"/></g><g><title>Validation Service</title><rect fill="#000000" fill-opacity="0.00000" height="1956.9336" width="8.3333" x="1886.1257" y="167.9688"/><line style="stroke:#BABDBF;stroke-width:1.0417;stroke-dasharray:5.2083,5.2083;" x1="1890.1093" x2="1890.1093" y1="167.9688" y2="2124.9023"/></g><g class="participant participant-head" data-participant="Survey"><text fill="#343A40" font-family="Arial" font-size="12.5" lengthAdjust="spacing" textLength="99.5361" x="20.8333" y="159.8124">External Survey</text><ellipse cx="73.7264" cy="88.8346" fill="url(#g5g8fypc4qts40)" rx="8.3333" ry="8.3333" style="stroke:#2FA4E7;stroke-width:1.0417;"/><path d="M73.7264,97.168 L73.7264,125.293 M60.1847,105.5013 L87.2681,105.5013 M73.7264,125.293 L60.1847,140.918 M73.7264,125.293 L87.2681,140.918" fill="none" style="stroke:#2FA4E7;stroke-width:1.0417;"/></g><g class="participant participant-tail" data-participant="Survey"><text fill="#343A40" font-family="Arial" font-size="12.5" lengthAdjust="spacing" textLength="99.5361" x="20.8333" y="2140.6718">External Survey</text><ellipse cx="73.7264" cy="2158.2031" fill="url(#g5g8fypc4qts40)" rx="8.3333" ry="8.3333" style="stroke:#2FA4E7;stroke-width:1.0417;"/><path d="M73.7264,2166.5365 L73.7264,2194.6615 M60.1847,2174.8698 L87.2681,2174.8698 M73.7264,2194.6615 L60.1847,2210.2865 M73.7264,2194.6615 L87.2681,2210.2865" fill="none" style="stroke:#2FA4E7;stroke-width:1.0417;"/></g><g class="participant participant-head" data-participant="MAST"><rect fill="url(#g5g8fypc4qts40)" height="39.5508" rx="4.1667" ry="4.1667" style="stroke:#2FA4E7;stroke-width:1.0417;" width="100.0671" x="286.7523" y="127.3763"/><text fill="#FFFFFF" font-family="Arial" font-size="12.5" lengthAdjust="spacing" textLength="75.0671" x="299.2523" y="151.4791">MAST Client</text></g><g class="participant participant-tail" data-participant="MAST"><rect fill="url(#g5g8fypc4qts40)" height="39.5508" rx="4.1667" ry="4.1667" style="stroke:#2FA4E7;stroke-width:1.0417;" width="100.0671" x="286.7523" y="2123.8607"/><text fill="#FFFFFF" font-family="Arial" font-size="12.5" lengthAdjust="spacing" textLength="75.0671" x="299.2523" y="2147.9635">MAST Client</text></g><g class="participant participant-head" data-participant="ObsService"><rect fill="url(#g5g8fypc4qts40)" height="39.5508" rx="4.1667" ry="4.1667" style="stroke:#2FA4E7;stroke-width:1.0417;" width="151.2878" x="480.5695" y="127.3763"/><text fill="#FFFFFF" font-family="Arial" font-size="12.5" lengthAdjust="spacing" textLength="126.2878" x="493.0695" y="151.4791">Observation Service</text></g><g class="participant participant-tail" data-participant="ObsService"><rect fill="url(#g5g8fypc4qts40)" height="39.5508" rx="4.1667" ry="4.1667" style="stroke:#2FA4E7;stroke-width:1.0417;" width="151.2878" x="480.5695" y="2123.8607"/><text fill="#FFFFFF" font-family="Arial" font-size="12.5" lengthAdjust="spacing" textLength="126.2878" x="493.0695" y="2147.9635">Observation Service</text></g><g class="participant participant-head" data-participant="DB"><rect fill="url(#g5g8fypc4qts40)" height="39.5508" rx="4.1667" ry="4.1667" style="stroke:#2FA4E7;stroke-width:1.0417;" width="84.6436" x="725.6073" y="127.3763"/><text fill="#FFFFFF" font-family="Arial" font-size="12.5" lengthAdjust="spacing" textLength="59.6436" x="738.1073" y="151.4791">Database</text></g><g class="participant participant-tail" data-participant="DB"><rect fill="url(#g5g8fypc4qts40)" height="39.5508" rx="4.1667" ry="4.1667" style="stroke:#2FA4E7;stroke-width:1.0417;" width="84.6436" x="725.6073" y="2123.8607"/><text fill="#FFFFFF" font-family="Arial" font-size="12.5" lengthAdjust="spacing" textLength="59.6436" x="738.1073" y="2147.9635">Database</text></g><g class="participant participant-head" data-participant="R2"><rect fill="url(#g5g8fypc4qts40)" height="39.5508" rx="4.1667" ry="4.1667" style="stroke:#2FA4E7;stroke-width:1.0417;" width="94.519" x="904.0009" y="127.3763"/><text fill="#FFFFFF" font-family="Arial" font-size="12.5" lengthAdjust="spacing" textLength="69.519" x="916.5009" y="151.4791">R2 Storage</text></g><g class="participant participant-tail" data-participant="R2"><rect fill="url(#g5g8fypc4qts40)" height="39.5508" rx="4.1667" ry="4.1667" style="stroke:#2FA4E7;stroke-width:1.0417;" width="94.519" x="904.0009" y="2123.8607"/><text fill="#FFFFFF" font-family="Arial" font-size="12.5" lengthAdjust="spacing" textLength="69.519" x="916.5009" y="2147.9635">R2 Storage</text></g><g class="participant participant-head" data-participant="PreprocessWorker"><rect fill="url(#g5g8fypc4qts40)" height="39.5508" rx="4.1667" ry="4.1667" style="stroke:#2FA4E7;stroke-width:1.0417;" width="162.1948" x="1092.2699" y="127.3763"/><text fill="#FFFFFF" font-family="Arial" font-size="12.5" lengthAdjust="spacing" textLength="137.1948" x="1104.7699" y="151.4791">Preprocessing Worker</text></g><g class="participant participant-tail" data-participant="PreprocessWorker"><rect fill="url(#g5g8fypc4qts40)" height="39.5508" rx="4.1667" ry="4.1667" style="stroke:#2FA4E7;stroke-width:1.0417;" width="162.1948" x="1092.2699" y="2123.8607"/><text fill="#FFFFFF" font-family="Arial" font-size="12.5" lengthAdjust="spacing" textLength="137.1948" x="1104.7699" y="2147.9635">Preprocessing Worker</text></g><g class="participant participant-head" data-participant="DiffWorker"><rect fill="url(#g5g8fypc4qts40)" height="39.5508" rx="4.1667" ry="4.1667" style="stroke:#2FA4E7;stroke-width:1.0417;" width="150.7324" x="1348.2147" y="127.3763"/><text fill="#FFFFFF" font-family="Arial" font-size="12.5" lengthAdjust="spacing" textLength="125.7324" x="1360.7147" y="151.4791">Differencing Worker</text></g><g class="participant participant-tail" data-participant="DiffWorker"><rect fill="url(#g5g8fypc4qts40)" height="39.5508" rx="4.1667" ry="4.1667" style="stroke:#2FA4E7;stroke-width:1.0417;" width="150.7324" x="1348.2147" y="2123.8607"/><text fill="#FFFFFF" font-family="Arial" font-size="12.5" lengthAdjust="spacing" textLength="125.7324" x="1360.7147" y="2147.9635">Differencing Worker</text></g><g class="participant participant-head" data-participant="DetectionWorker"><rect fill="url(#g5g8fypc4qts40)" height="39.5508" rx="4.1667" ry="4.1667" style="stroke:#2FA4E7;stroke-width:1.0417;" width="134.9121" x="1592.6971" y="127.3763"/><text fill="#FFFFFF" font-family="Arial" font-size="12.5" lengthAdjust="spacing" textLength="109.9121" x="1605.1971" y="151.4791">Detection Worker</text></g><g class="participant participant-tail" data-participant="DetectionWorker"><rect fill="url(#g5g8fypc4qts40)" height="39.5508" rx="4.1667" ry="4.1667" style="stroke:#2FA4E7;stroke-width:1.0417;" width="134.9121" x="1592.6971" y="2123.8607"/><text fill="#FFFFFF" font-family="Arial" font-size="12.5" lengthAdjust="spacing" textLength="109.9121" x="1605.1971" y="2147.9635">Detection Worker</text></g><g class="participant participant-head" data-participant="ValidationService"><rect fill="url(#g5g8fypc4qts40)" height="39.5508" rx="4.1667" ry="4.1667" style="stroke:#2FA4E7;stroke-width:1.0417;" width="137.8662" x="1821.3593" y="127.3763"/><text fill="#FFFFFF" font-family="Arial" font-size="12.5" lengthAdjust="spacing" textLength="112.8662" x="1833.8593" y="151.4791">Validation Service</text></g><g class="participant participant-tail" data-participant="ValidationService"><rect fill="url(#g5g8fypc4qts40)" height="39.5508" rx="4.1667" ry="4.1667" style="stroke:#2FA4E7;stroke-width:1.0417;" width="137.8662" x="1821.3593" y="2123.8607"/><text fill="#FFFFFF" font-family="Arial" font-size="12.5" lengthAdjust="spacing" textLength="112.8662" x="1833.8593" y="2147.9635">Validation Service</text></g><rect fill="url(#g5g8fypc4qts41)" height="3.125" rx="4.1667" ry="4.1667" style="stroke:url(#g5g8fypc4qts41);stroke-width:1.0417;" width="2074.7854" x="10.4167" y="204.4108"/><line style="stroke:#868E96;stroke-width:1.0417;" x1="10.4167" x2="2085.202" y1="204.4108" y2="204.4108"/><line style="stroke:#868E96;stroke-width:1.0417;" x1="10.4167" x2="2085.202" y1="207.5358" y2="207.5358"/><rect fill="url(#g5g8fypc4qts41)" height="33.3008" rx="4.1667" ry="4.1667" style="stroke:#868E96;stroke-width:2.0833;" width="185.8521" x="954.8833" y="188.8021"/><text fill="#343A40" font-family="Arial" font-size="12.5" font-weight="bold" lengthAdjust="spacing" textLength="156.5002" x="966.3417" y="209.7799">Observation Ingestion</text><g class="message" data-participant-1="Survey" data-participant-2="MAST"><polygon fill="#2FA4E7" points="324.2859,259.5703,334.7026,263.737,324.2859,267.9036,328.4526,263.737" style="stroke:#2FA4E7;stroke-width:1.0417;"/><line style="stroke:#2FA4E7;stroke-width:3.125;" x1="73.7264" x2="330.5359" y1="263.737" y2="263.737"/><text fill="#343A40" font-family="Arial" font-size="12.5" lengthAdjust="spacing" textLength="227.6428" x="86.2264" y="253.4973">Query observations by position/time</text></g><g class="message" data-participant-1="MAST" data-participant-2="Survey"><polygon fill="#2FA4E7" points="85.1847,299.1211,74.7681,303.2878,85.1847,307.4544,81.0181,303.2878" style="stroke:#2FA4E7;stroke-width:1.0417;"/><line style="stroke:#2FA4E7;stroke-width:3.125;" x1="78.9347" x2="335.7442" y1="303.2878" y2="303.2878"/><text fill="#343A40" font-family="Arial" font-size="12.5" lengthAdjust="spacing" textLength="184.7168" x="96.6431" y="293.0481">Return observation metadata</text></g><g class="message" data-participant-1="MAST" data-participant-2="R2"><polygon fill="#2FA4E7" points="938.7604,338.6719,949.177,342.8385,938.7604,347.0052,942.927,342.8385" style="stroke:#2FA4E7;stroke-width:1.0417;"/><line style="stroke:#2FA4E7;stroke-width:3.125;" x1="336.7859" x2="945.0104" y1="342.8385" y2="342.8385"/><text fill="#343A40" font-family="Arial" font-size="12.5" lengthAdjust="spacing" textLength="122.0764" x="349.2859" y="332.5989">Download FITS files</text></g><g class="message" data-participant-1="R2" data-participant-2="MAST"><polygon fill="#2FA4E7" points="348.2442,378.2227,337.8276,382.3893,348.2442,386.556,344.0776,382.3893" style="stroke:#2FA4E7;stroke-width:1.0417;"/><line style="stroke:#2FA4E7;stroke-width:3.125;" x1="341.9942" x2="950.2187" y1="382.3893" y2="382.3893"/><text fill="#343A40" font-family="Arial" font-size="12.5" lengthAdjust="spacing" textLength="123.9563" x="359.7026" y="372.1497">Confirm file storage</text></g><g class="message" data-participant-1="MAST" data-participant-2="ObsService"><polygon fill="#2FA4E7" points="543.7134,417.7734,554.13,421.9401,543.7134,426.1068,547.88,421.9401" style="stroke:#2FA4E7;stroke-width:1.0417;"/><line style="stroke:#2FA4E7;stroke-width:3.125;" x1="336.7859" x2="549.9634" y1="421.9401" y2="421.9401"/><text fill="#343A40" font-family="Arial" font-size="12.5" lengthAdjust="spacing" textLength="164.1052" x="349.2859" y="411.7004">Create observation record</text></g><g class="message" data-participant-1="ObsService" data-participant-2="DB"><polygon fill="#2FA4E7" points="755.4291,457.3242,765.8457,461.4909,755.4291,465.6576,759.5957,461.4909" style="stroke:#2FA4E7;stroke-width:1.0417;"/><line style="stroke:#2FA4E7;stroke-width:3.125;" x1="556.2134" x2="761.6791" y1="461.4909" y2="461.4909"/><text fill="#343A40" font-family="Arial" font-size="12.5" lengthAdjust="spacing" textLength="175.769" x="568.7134" y="451.2512">Store observation metadata</text></g><g class="message" data-participant-1="ObsService" data-participant-2="DB"><polygon fill="#2FA4E7" points="755.4291,496.875,765.8457,501.0417,755.4291,505.2083,759.5957,501.0417" style="stroke:#2FA4E7;stroke-width:1.0417;"/><line style="stroke:#2FA4E7;stroke-width:3.125;" x1="556.2134" x2="761.6791" y1="501.0417" y2="501.0417"/><text fill="#343A40" font-family="Arial" font-size="12.5" lengthAdjust="spacing" textLength="173.7061" x="568.7134" y="490.802">Update status to "ingested"</text></g><g class="message" data-participant-1="ObsService" data-participant-2="PreprocessWorker"><polygon fill="#2FA4E7" points="1160.8673,536.4258,1171.284,540.5924,1160.8673,544.7591,1165.034,540.5924" style="stroke:#2FA4E7;stroke-width:1.0417;"/><line style="stroke:#2FA4E7;stroke-width:3.125;" x1="556.2134" x2="1167.1173" y1="540.5924" y2="540.5924"/><text fill="#343A40" font-family="Arial" font-size="12.5" lengthAdjust="spacing" textLength="137.323" x="568.7134" y="530.3528">Trigger preprocessing</text></g><rect fill="url(#g5g8fypc4qts41)" height="3.125" rx="4.1667" ry="4.1667" style="stroke:url(#g5g8fypc4qts41);stroke-width:1.0417;" width="2074.7854" x="10.4167" y="574.9512"/><line style="stroke:#868E96;stroke-width:1.0417;" x1="10.4167" x2="2085.202" y1="574.9512" y2="574.9512"/><line style="stroke:#868E96;stroke-width:1.0417;" x1="10.4167" x2="2085.202" y1="578.0762" y2="578.0762"/><rect fill="url(#g5g8fypc4qts41)" height="33.3008" rx="4.1667" ry="4.1667" style="stroke:#868E96;stroke-width:2.0833;" width="129.7546" x="982.932" y="559.3424"/><text fill="#343A40" font-family="Arial" font-size="12.5" font-weight="bold" lengthAdjust="spacing" textLength="100.4028" x="994.3904" y="580.3202">Preprocessing</text><g class="message" data-participant-1="PreprocessWorker" data-participant-2="DB"><polygon fill="#2FA4E7" points="779.3874,630.1107,768.9707,634.2773,779.3874,638.444,775.2207,634.2773" style="stroke:#2FA4E7;stroke-width:1.0417;"/><line style="stroke:#2FA4E7;stroke-width:3.125;" x1="773.1374" x2="1172.3256" y1="634.2773" y2="634.2773"/><text fill="#343A40" font-family="Arial" font-size="12.5" lengthAdjust="spacing" textLength="145.7947" x="790.8457" y="624.0377">Get observation details</text></g><g class="message" data-participant-1="PreprocessWorker" data-participant-2="R2"><polygon fill="#2FA4E7" points="962.7187,669.6615,952.302,673.8281,962.7187,677.9948,958.552,673.8281" style="stroke:#2FA4E7;stroke-width:1.0417;"/><line style="stroke:#2FA4E7;stroke-width:3.125;" x1="956.4687" x2="1172.3256" y1="673.8281" y2="673.8281"/><text fill="#343A40" font-family="Arial" font-size="12.5" lengthAdjust="spacing" textLength="142.5598" x="974.177" y="663.5885">Download raw FITS file</text></g><g class="message" data-participant-1="PreprocessWorker" data-participant-2="PreprocessWorker"><line style="stroke:#2FA4E7;stroke-width:3.125;" x1="1173.3673" x2="1217.1173" y1="713.3789" y2="713.3789"/><line style="stroke:#2FA4E7;stroke-width:3.125;" x1="1217.1173" x2="1217.1173" y1="713.3789" y2="726.9206"/><line style="stroke:#2FA4E7;stroke-width:3.125;" x1="1174.409" x2="1217.1173" y1="726.9206" y2="726.9206"/><polygon fill="#2FA4E7" points="1184.8256,722.7539,1174.409,726.9206,1184.8256,731.0872,1180.659,726.9206" style="stroke:#2FA4E7;stroke-width:1.0417;"/><text fill="#343A40" font-family="Arial" font-size="12.5" lengthAdjust="spacing" textLength="105.4199" x="1185.8673" y="703.1392">Apply calibration</text></g><g class="message" data-participant-1="PreprocessWorker" data-participant-2="PreprocessWorker"><line style="stroke:#2FA4E7;stroke-width:3.125;" x1="1173.3673" x2="1217.1173" y1="766.4714" y2="766.4714"/><line style="stroke:#2FA4E7;stroke-width:3.125;" x1="1217.1173" x2="1217.1173" y1="766.4714" y2="780.013"/><line style="stroke:#2FA4E7;stroke-width:3.125;" x1="1174.409" x2="1217.1173" y1="780.013" y2="780.013"/><polygon fill="#2FA4E7" points="1184.8256,775.8464,1174.409,780.013,1184.8256,784.1797,1180.659,780.013" style="stroke:#2FA4E7;stroke-width:1.0417;"/><text fill="#343A40" font-family="Arial" font-size="12.5" lengthAdjust="spacing" textLength="149.8535" x="1185.8673" y="756.2317">Perform WCS alignment</text></g><g class="message" data-participant-1="PreprocessWorker" data-participant-2="PreprocessWorker"><line style="stroke:#2FA4E7;stroke-width:3.125;" x1="1173.3673" x2="1217.1173" y1="819.5638" y2="819.5638"/><line style="stroke:#2FA4E7;stroke-width:3.125;" x1="1217.1173" x2="1217.1173" y1="819.5638" y2="833.1055"/><line style="stroke:#2FA4E7;stroke-width:3.125;" x1="1174.409" x2="1217.1173" y1="833.1055" y2="833.1055"/><polygon fill="#2FA4E7" points="1184.8256,828.9388,1174.409,833.1055,1184.8256,837.2721,1180.659,833.1055" style="stroke:#2FA4E7;stroke-width:1.0417;"/><text fill="#343A40" font-family="Arial" font-size="12.5" lengthAdjust="spacing" textLength="115.5151" x="1185.8673" y="809.3241">Image registration</text></g><g class="message" data-participant-1="PreprocessWorker" data-participant-2="R2"><polygon fill="#2FA4E7" points="962.7187,868.4896,952.302,872.6563,962.7187,876.8229,958.552,872.6563" style="stroke:#2FA4E7;stroke-width:1.0417;"/><line style="stroke:#2FA4E7;stroke-width:3.125;" x1="956.4687" x2="1172.3256" y1="872.6563" y2="872.6563"/><text fill="#343A40" font-family="Arial" font-size="12.5" lengthAdjust="spacing" textLength="131.6406" x="974.177" y="862.4166">Store processed FITS</text></g><g class="message" data-participant-1="PreprocessWorker" data-participant-2="DB"><polygon fill="#2FA4E7" points="779.3874,908.0404,768.9707,912.207,779.3874,916.3737,775.2207,912.207" style="stroke:#2FA4E7;stroke-width:1.0417;"/><line style="stroke:#2FA4E7;stroke-width:3.125;" x1="773.1374" x2="1172.3256" y1="912.207" y2="912.207"/><text fill="#343A40" font-family="Arial" font-size="12.5" lengthAdjust="spacing" textLength="180.0293" x="790.8457" y="901.9674">Update preprocessing status</text></g><g class="message" data-participant-1="PreprocessWorker" data-participant-2="DiffWorker"><polygon fill="#2FA4E7" points="1411.0809,947.5911,1421.4976,951.7578,1411.0809,955.9245,1415.2476,951.7578" style="stroke:#2FA4E7;stroke-width:1.0417;"/><line style="stroke:#2FA4E7;stroke-width:3.125;" x1="1173.3673" x2="1417.3309" y1="951.7578" y2="951.7578"/><text fill="#343A40" font-family="Arial" font-size="12.5" lengthAdjust="spacing" textLength="123.7732" x="1185.8673" y="941.5181">Trigger differencing</text></g><rect fill="url(#g5g8fypc4qts41)" height="3.125" rx="4.1667" ry="4.1667" style="stroke:url(#g5g8fypc4qts41);stroke-width:1.0417;" width="2074.7854" x="10.4167" y="986.1165"/><line style="stroke:#868E96;stroke-width:1.0417;" x1="10.4167" x2="2085.202" y1="986.1165" y2="986.1165"/><line style="stroke:#868E96;stroke-width:1.0417;" x1="10.4167" x2="2085.202" y1="989.2415" y2="989.2415"/><rect fill="url(#g5g8fypc4qts41)" height="33.3008" rx="4.1667" ry="4.1667" style="stroke:#868E96;stroke-width:2.0833;" width="116.449" x="989.5849" y="970.5078"/><text fill="#343A40" font-family="Arial" font-size="12.5" font-weight="bold" lengthAdjust="spacing" textLength="87.0972" x="1001.0432" y="991.4856">Differencing</text><g class="message" data-participant-1="DiffWorker" data-participant-2="DB"><polygon fill="#2FA4E7" points="779.3874,1041.276,768.9707,1045.4427,779.3874,1049.6094,775.2207,1045.4427" style="stroke:#2FA4E7;stroke-width:1.0417;"/><line style="stroke:#2FA4E7;stroke-width:3.125;" x1="773.1374" x2="1422.5393" y1="1045.4427" y2="1045.4427"/><text fill="#343A40" font-family="Arial" font-size="12.5" lengthAdjust="spacing" textLength="145.7947" x="790.8457" y="1035.203">Get observation details</text></g><g class="message" data-participant-1="DiffWorker" data-participant-2="R2"><polygon fill="#2FA4E7" points="962.7187,1080.8268,952.302,1084.9935,962.7187,1089.1602,958.552,1084.9935" style="stroke:#2FA4E7;stroke-width:1.0417;"/><line style="stroke:#2FA4E7;stroke-width:3.125;" x1="956.4687" x2="1422.5393" y1="1084.9935" y2="1084.9935"/><text fill="#343A40" font-family="Arial" font-size="12.5" lengthAdjust="spacing" textLength="160.4614" x="974.177" y="1074.7538">Download processed FITS</text></g><g class="message" data-participant-1="DiffWorker" data-participant-2="R2"><polygon fill="#2FA4E7" points="962.7187,1120.3776,952.302,1124.5443,962.7187,1128.7109,958.552,1124.5443" style="stroke:#2FA4E7;stroke-width:1.0417;"/><line style="stroke:#2FA4E7;stroke-width:3.125;" x1="956.4687" x2="1422.5393" y1="1124.5443" y2="1124.5443"/><text fill="#343A40" font-family="Arial" font-size="12.5" lengthAdjust="spacing" textLength="169.2505" x="974.177" y="1114.3046">Download reference image</text></g><g class="message" data-participant-1="DiffWorker" data-participant-2="DiffWorker"><line style="stroke:#2FA4E7;stroke-width:3.125;" x1="1423.5809" x2="1467.3309" y1="1164.0951" y2="1164.0951"/><line style="stroke:#2FA4E7;stroke-width:3.125;" x1="1467.3309" x2="1467.3309" y1="1164.0951" y2="1177.6367"/><line style="stroke:#2FA4E7;stroke-width:3.125;" x1="1424.6226" x2="1467.3309" y1="1177.6367" y2="1177.6367"/><polygon fill="#2FA4E7" points="1435.0393,1173.4701,1424.6226,1177.6367,1435.0393,1181.8034,1430.8726,1177.6367" style="stroke:#2FA4E7;stroke-width:1.0417;"/><text fill="#343A40" font-family="Arial" font-size="12.5" lengthAdjust="spacing" textLength="139.2883" x="1436.0809" y="1153.8554">Apply ZOGY algorithm</text></g><g class="message" data-participant-1="DiffWorker" data-participant-2="DiffWorker"><line style="stroke:#2FA4E7;stroke-width:3.125;" x1="1423.5809" x2="1467.3309" y1="1217.1875" y2="1217.1875"/><line style="stroke:#2FA4E7;stroke-width:3.125;" x1="1467.3309" x2="1467.3309" y1="1217.1875" y2="1230.7292"/><line style="stroke:#2FA4E7;stroke-width:3.125;" x1="1424.6226" x2="1467.3309" y1="1230.7292" y2="1230.7292"/><polygon fill="#2FA4E7" points="1435.0393,1226.5625,1424.6226,1230.7292,1435.0393,1234.8958,1430.8726,1230.7292" style="stroke:#2FA4E7;stroke-width:1.0417;"/><text fill="#343A40" font-family="Arial" font-size="12.5" lengthAdjust="spacing" textLength="134.137" x="1436.0809" y="1206.9478">Extract sources (SEP)</text></g><g class="message" data-participant-1="DiffWorker" data-participant-2="DiffWorker"><line style="stroke:#2FA4E7;stroke-width:3.125;" x1="1423.5809" x2="1467.3309" y1="1270.2799" y2="1270.2799"/><line style="stroke:#2FA4E7;stroke-width:3.125;" x1="1467.3309" x2="1467.3309" y1="1270.2799" y2="1283.8216"/><line style="stroke:#2FA4E7;stroke-width:3.125;" x1="1424.6226" x2="1467.3309" y1="1283.8216" y2="1283.8216"/><polygon fill="#2FA4E7" points="1435.0393,1279.6549,1424.6226,1283.8216,1435.0393,1287.9883,1430.8726,1283.8216" style="stroke:#2FA4E7;stroke-width:1.0417;"/><text fill="#343A40" font-family="Arial" font-size="12.5" lengthAdjust="spacing" textLength="104.4006" x="1436.0809" y="1260.0403">Filter candidates</text></g><g class="message" data-participant-1="DiffWorker" data-participant-2="R2"><polygon fill="#2FA4E7" points="962.7187,1319.2057,952.302,1323.3724,962.7187,1327.5391,958.552,1323.3724" style="stroke:#2FA4E7;stroke-width:1.0417;"/><line style="stroke:#2FA4E7;stroke-width:3.125;" x1="956.4687" x2="1422.5393" y1="1323.3724" y2="1323.3724"/><text fill="#343A40" font-family="Arial" font-size="12.5" lengthAdjust="spacing" textLength="143.4082" x="974.177" y="1313.1327">Store difference image</text></g><g class="message" data-participant-1="DiffWorker" data-participant-2="DB"><polygon fill="#2FA4E7" points="779.3874,1358.7565,768.9707,1362.9232,779.3874,1367.0898,775.2207,1362.9232" style="stroke:#2FA4E7;stroke-width:1.0417;"/><line style="stroke:#2FA4E7;stroke-width:3.125;" x1="773.1374" x2="1422.5393" y1="1362.9232" y2="1362.9232"/><text fill="#343A40" font-family="Arial" font-size="12.5" lengthAdjust="spacing" textLength="105.8472" x="790.8457" y="1352.6835">Store candidates</text></g><g class="message" data-participant-1="DiffWorker" data-participant-2="DetectionWorker"><polygon fill="#2FA4E7" points="1647.6532,1398.3073,1658.0699,1402.474,1647.6532,1406.6406,1651.8199,1402.474" style="stroke:#2FA4E7;stroke-width:1.0417;"/><line style="stroke:#2FA4E7;stroke-width:3.125;" x1="1423.5809" x2="1653.9032" y1="1402.474" y2="1402.474"/><text fill="#343A40" font-family="Arial" font-size="12.5" lengthAdjust="spacing" textLength="107.9529" x="1436.0809" y="1392.2343">Trigger detection</text></g><rect fill="url(#g5g8fypc4qts41)" height="3.125" rx="4.1667" ry="4.1667" style="stroke:url(#g5g8fypc4qts41);stroke-width:1.0417;" width="2074.7854" x="10.4167" y="1436.8327"/><line style="stroke:#868E96;stroke-width:1.0417;" x1="10.4167" x2="2085.202" y1="1436.8327" y2="1436.8327"/><line style="stroke:#868E96;stroke-width:1.0417;" x1="10.4167" x2="2085.202" y1="1439.9577" y2="1439.9577"/><rect fill="url(#g5g8fypc4qts41)" height="33.3008" rx="4.1667" ry="4.1667" style="stroke:#868E96;stroke-width:2.0833;" width="97.8149" x="998.9019" y="1421.224"/><text fill="#343A40" font-family="Arial" font-size="12.5" font-weight="bold" lengthAdjust="spacing" textLength="68.4631" x="1010.3602" y="1442.2017">Detection</text><g class="message" data-participant-1="DetectionWorker" data-participant-2="DB"><polygon fill="#2FA4E7" points="779.3874,1491.9922,768.9707,1496.1589,779.3874,1500.3255,775.2207,1496.1589" style="stroke:#2FA4E7;stroke-width:1.0417;"/><line style="stroke:#2FA4E7;stroke-width:3.125;" x1="773.1374" x2="1659.1115" y1="1496.1589" y2="1496.1589"/><text fill="#343A40" font-family="Arial" font-size="12.5" lengthAdjust="spacing" textLength="94.812" x="790.8457" y="1485.9192">Get candidates</text></g><g class="message" data-participant-1="DetectionWorker" data-participant-2="R2"><polygon fill="#2FA4E7" points="962.7187,1531.543,952.302,1535.7096,962.7187,1539.8763,958.552,1535.7096" style="stroke:#2FA4E7;stroke-width:1.0417;"/><line style="stroke:#2FA4E7;stroke-width:3.125;" x1="956.4687" x2="1659.1115" y1="1535.7096" y2="1535.7096"/><text fill="#343A40" font-family="Arial" font-size="12.5" lengthAdjust="spacing" textLength="172.229" x="974.177" y="1525.47">Download difference image</text></g><g class="message" data-participant-1="DetectionWorker" data-participant-2="DetectionWorker"><line style="stroke:#2FA4E7;stroke-width:3.125;" x1="1660.1532" x2="1703.9032" y1="1575.2604" y2="1575.2604"/><line style="stroke:#2FA4E7;stroke-width:3.125;" x1="1703.9032" x2="1703.9032" y1="1575.2604" y2="1588.8021"/><line style="stroke:#2FA4E7;stroke-width:3.125;" x1="1661.1949" x2="1703.9032" y1="1588.8021" y2="1588.8021"/><polygon fill="#2FA4E7" points="1671.6115,1584.6354,1661.1949,1588.8021,1671.6115,1592.9688,1667.4449,1588.8021" style="stroke:#2FA4E7;stroke-width:1.0417;"/><text fill="#343A40" font-family="Arial" font-size="12.5" lengthAdjust="spacing" textLength="112.677" x="1672.6532" y="1565.0208">Load U-Net model</text></g><g class="message" data-participant-1="DetectionWorker" data-participant-2="DetectionWorker"><line style="stroke:#2FA4E7;stroke-width:3.125;" x1="1660.1532" x2="1703.9032" y1="1628.3529" y2="1628.3529"/><line style="stroke:#2FA4E7;stroke-width:3.125;" x1="1703.9032" x2="1703.9032" y1="1628.3529" y2="1641.8945"/><line style="stroke:#2FA4E7;stroke-width:3.125;" x1="1661.1949" x2="1703.9032" y1="1641.8945" y2="1641.8945"/><polygon fill="#2FA4E7" points="1671.6115,1637.7279,1661.1949,1641.8945,1671.6115,1646.0612,1667.4449,1641.8945" style="stroke:#2FA4E7;stroke-width:1.0417;"/><text fill="#343A40" font-family="Arial" font-size="12.5" lengthAdjust="spacing" textLength="87.3047" x="1672.6532" y="1618.1132">Run inference</text></g><g class="message" data-participant-1="DetectionWorker" data-participant-2="DetectionWorker"><line style="stroke:#2FA4E7;stroke-width:3.125;" x1="1660.1532" x2="1703.9032" y1="1681.4453" y2="1681.4453"/><line style="stroke:#2FA4E7;stroke-width:3.125;" x1="1703.9032" x2="1703.9032" y1="1681.4453" y2="1694.987"/><line style="stroke:#2FA4E7;stroke-width:3.125;" x1="1661.1949" x2="1703.9032" y1="1694.987" y2="1694.987"/><polygon fill="#2FA4E7" points="1671.6115,1690.8203,1661.1949,1694.987,1671.6115,1699.1536,1667.4449,1694.987" style="stroke:#2FA4E7;stroke-width:1.0417;"/><text fill="#343A40" font-family="Arial" font-size="12.5" lengthAdjust="spacing" textLength="104.8035" x="1672.6532" y="1671.2056">Score detections</text></g><g class="message" data-participant-1="DetectionWorker" data-participant-2="R2"><polygon fill="#2FA4E7" points="962.7187,1730.3711,952.302,1734.5378,962.7187,1738.7044,958.552,1734.5378" style="stroke:#2FA4E7;stroke-width:1.0417;"/><line style="stroke:#2FA4E7;stroke-width:3.125;" x1="956.4687" x2="1659.1115" y1="1734.5378" y2="1734.5378"/><text fill="#343A40" font-family="Arial" font-size="12.5" lengthAdjust="spacing" textLength="142.4438" x="974.177" y="1724.2981">Store detection results</text></g><g class="message" data-participant-1="DetectionWorker" data-participant-2="DB"><polygon fill="#2FA4E7" points="779.3874,1769.9219,768.9707,1774.0885,779.3874,1778.2552,775.2207,1774.0885" style="stroke:#2FA4E7;stroke-width:1.0417;"/><line style="stroke:#2FA4E7;stroke-width:3.125;" x1="773.1374" x2="1659.1115" y1="1774.0885" y2="1774.0885"/><text fill="#343A40" font-family="Arial" font-size="12.5" lengthAdjust="spacing" textLength="102.832" x="790.8457" y="1763.8489">Store detections</text></g><g class="message" data-participant-1="DetectionWorker" data-participant-2="ValidationService"><polygon fill="#2FA4E7" points="1877.7924,1809.4727,1888.209,1813.6393,1877.7924,1817.806,1881.959,1813.6393" style="stroke:#2FA4E7;stroke-width:1.0417;"/><line style="stroke:#2FA4E7;stroke-width:3.125;" x1="1660.1532" x2="1884.0424" y1="1813.6393" y2="1813.6393"/><text fill="#343A40" font-family="Arial" font-size="12.5" lengthAdjust="spacing" textLength="127.7405" x="1672.6532" y="1803.3997">Queue for validation</text></g><rect fill="url(#g5g8fypc4qts41)" height="3.125" rx="4.1667" ry="4.1667" style="stroke:url(#g5g8fypc4qts41);stroke-width:1.0417;" width="2074.7854" x="10.4167" y="1847.998"/><line style="stroke:#868E96;stroke-width:1.0417;" x1="10.4167" x2="2085.202" y1="1847.998" y2="1847.998"/><line style="stroke:#868E96;stroke-width:1.0417;" x1="10.4167" x2="2085.202" y1="1851.123" y2="1851.123"/><rect fill="url(#g5g8fypc4qts41)" height="33.3008" rx="4.1667" ry="4.1667" style="stroke:#868E96;stroke-width:2.0833;" width="101.1597" x="997.2295" y="1832.3893"/><text fill="#343A40" font-family="Arial" font-size="12.5" font-weight="bold" lengthAdjust="spacing" textLength="71.8079" x="1008.6878" y="1853.3671">Validation</text><g class="message" data-participant-1="ValidationService" data-participant-2="DB"><polygon fill="#2FA4E7" points="779.3874,1903.1576,768.9707,1907.3242,779.3874,1911.4909,775.2207,1907.3242" style="stroke:#2FA4E7;stroke-width:1.0417;"/><line style="stroke:#2FA4E7;stroke-width:3.125;" x1="773.1374" x2="1889.2507" y1="1907.3242" y2="1907.3242"/><text fill="#343A40" font-family="Arial" font-size="12.5" lengthAdjust="spacing" textLength="146.582" x="790.8457" y="1897.0846">Get pending detections</text></g><g class="message" data-participant-1="ValidationService" data-participant-2="ValidationService"><line style="stroke:#2FA4E7;stroke-width:3.125;" x1="1890.2924" x2="1934.0424" y1="1946.875" y2="1946.875"/><line style="stroke:#2FA4E7;stroke-width:3.125;" x1="1934.0424" x2="1934.0424" y1="1946.875" y2="1960.4167"/><line style="stroke:#2FA4E7;stroke-width:3.125;" x1="1891.334" x2="1934.0424" y1="1960.4167" y2="1960.4167"/><polygon fill="#2FA4E7" points="1901.7507,1956.25,1891.334,1960.4167,1901.7507,1964.5833,1897.584,1960.4167" style="stroke:#2FA4E7;stroke-width:1.0417;"/><text fill="#343A40" font-family="Arial" font-size="12.5" lengthAdjust="spacing" textLength="169.9097" x="1902.7924" y="1936.6353">Present to human reviewer</text></g><g class="message" data-participant-1="ValidationService" data-participant-2="ValidationService"><line style="stroke:#2FA4E7;stroke-width:3.125;" x1="1890.2924" x2="1934.0424" y1="1999.9674" y2="1999.9674"/><line style="stroke:#2FA4E7;stroke-width:3.125;" x1="1934.0424" x2="1934.0424" y1="1999.9674" y2="2013.5091"/><line style="stroke:#2FA4E7;stroke-width:3.125;" x1="1891.334" x2="1934.0424" y1="2013.5091" y2="2013.5091"/><polygon fill="#2FA4E7" points="1901.7507,2009.3424,1891.334,2013.5091,1901.7507,2017.6758,1897.584,2013.5091" style="stroke:#2FA4E7;stroke-width:1.0417;"/><text fill="#343A40" font-family="Arial" font-size="12.5" lengthAdjust="spacing" textLength="149.0173" x="1902.7924" y="1989.7278">Collect validation labels</text></g><g class="message" data-participant-1="ValidationService" data-participant-2="DB"><polygon fill="#2FA4E7" points="779.3874,2048.8932,768.9707,2053.0599,779.3874,2057.2266,775.2207,2053.0599" style="stroke:#2FA4E7;stroke-width:1.0417;"/><line style="stroke:#2FA4E7;stroke-width:3.125;" x1="773.1374" x2="1889.2507" y1="2053.0599" y2="2053.0599"/><text fill="#343A40" font-family="Arial" font-size="12.5" lengthAdjust="spacing" textLength="150.6592" x="790.8457" y="2042.8202">Update detection status</text></g><g class="message" data-participant-1="ValidationService" data-participant-2="ValidationService"><line style="stroke:#2FA4E7;stroke-width:3.125;" x1="1890.2924" x2="1934.0424" y1="2092.6107" y2="2092.6107"/><line style="stroke:#2FA4E7;stroke-width:3.125;" x1="1934.0424" x2="1934.0424" y1="2092.6107" y2="2106.1523"/><line style="stroke:#2FA4E7;stroke-width:3.125;" x1="1891.334" x2="1934.0424" y1="2106.1523" y2="2106.1523"/><polygon fill="#2FA4E7" points="1901.7507,2101.9857,1891.334,2106.1523,1901.7507,2110.319,1897.584,2106.1523" style="stroke:#2FA4E7;stroke-width:1.0417;"/><text fill="#343A40" font-family="Arial" font-size="12.5" lengthAdjust="spacing" textLength="160.4126" x="1902.7924" y="2082.371">Generate alerts if needed</text></g><!--SRC=[ZLPDRzim3BtxLt3PPJiKMt8P4203sgGj0cnT5hShjfjYCwvGMV8eELtswqVBZh_YTBd5ugCU-Pv4vOrxmXGXGieL2XtOPwapGIA5ZOYU4pAvZkT66OAt7nVZyVXJ2n7ZLkJAtHZjxWHlSabIgE5uAFyYZ2T1uAHJZBIEbWlujh58E-6aqR0Y4w6rKYSGukySTOH182B7pAFhFmv92mLXJZlSZq3OwcV0J4v6CXFQmUZhPNWFSoLHEuyflhk8DcF8lsI47idhrMSNln1ER8GjGOkhRd0zWP3h4qaPNa-wuHLXrZJrQEWPoGERGBdOevJRBHBttyigrWVnw33o3RN1XyMXZ1z2oVXOWsRv84KmctKyMke4hVyrcmMb0N3nsSiyXUyvqXvC0xUmsKDch2m-FZYPOk0DuemoTmfhT3dfTXAaw0HN8MhiUZA5XNdHoeWORfRt8MobGXkm-ZNttEYjfDH7m9QUr1iqtZAGK3Zi4196XkAWGHKvYwkfznQ7Qpi6FsHniR5rmkKMd86Hz69XFEgX- -vFuPvaaY11rZumNlpk4MBH-ya7-bjqdKfZhbGgEuZl24hYfH5r47vSxsMMgJr4V5msvEdEp5iXRGsxz3WFWPCJdV95FJDtcRAbx5KYUNIS9YrwAtshGbYUcPF2LRvrfAzS7CwfRs7ZMzowiTwspXLcrvga__dLHNQSwZNq2fAmP4UGXMfz-bO7fPE_ljt-P4CIGz8zfQ_0UGuJZsIm9YUk1Tw5rwlth-1lfEB1pIT5nyLamQ7-IhTg2K_KN5_7atlr9bxBdKEWjAQUbeKltPosEMsUOrH7xkFQ1xRjL_Ubo7ouk6EgrCIepafQvngahiZEoWWZh-vX-MGpbGkrE8IMNsvxIg4UV11tz9pu9o97u1a0kpheNMczI6pBKMRRc0pP6BvMBV91_00ztsVB4wUOpazvAeekTn9V-7ayTmV-9wIOjLK-AB51PK_NN0sOHjfgk9nBUOiQgTX1A2HdGMv18yOO_mC0]--></g></svg>
